<mxfile host="app.diagrams.net" agent="Mozilla/5.0 (Windows NT 10.0; Win64; x64) AppleWebKit/537.36 (KHTML, like Gecko) Chrome/137.0.0.0 Safari/537.36 OPR/121.0.0.0" version="28.2.3">
  <diagram name="PÃ¡gina-1" id="8BagimQZ3HkVlO_oKE1w">
    <mxGraphModel dx="1701" dy="501" grid="1" gridSize="10" guides="1" tooltips="1" connect="1" arrows="1" fold="1" page="1" pageScale="1" pageWidth="827" pageHeight="1169" math="0" shadow="0">
      <root>
        <mxCell id="0" />
        <mxCell id="1" parent="0" />
        <mxCell id="qm77CVOvTGz22B-kU-BN-13" value="Player Controller&lt;div&gt;(Movimiento, Armas, Colisiones)&lt;span style=&quot;color: rgba(0, 0, 0, 0); font-family: monospace; font-size: 0px; text-align: start; text-wrap-mode: nowrap; background-color: transparent;&quot;&gt;%3CmxGraphModel%3E%3Croot%3E%3CmxCell%20id%3D%220%22%2F%3E%3CmxCell%20id%3D%221%22%20parent%3D%220%22%2F%3E%3CmxCell%20id%3D%222%22%20value%3D%22HUD%2FUID%26lt%3Bdiv%26gt%3B(Vida%2C%20Oro%2C%20Tiempo%2C%20Oleadas)%26lt%3B%2Fdiv%26gt%3B%22%20style%3D%22rounded%3D1%3BwhiteSpace%3Dwrap%3Bhtml%3D1%3B%22%20vertex%3D%221%22%20parent%3D%221%22%3E%3CmxGeometry%20x%3D%22280%22%20y%3D%22190%22%20width%3D%22120%22%20height%3D%2260%22%20as%3D%22geometry%22%2F%3E%3C%2FmxCell%3E%3C%2Froot%3E%3C%2FmxGraphModel%3E&lt;/span&gt;&lt;/div&gt;" style="rounded=1;whiteSpace=wrap;html=1;" parent="1" vertex="1">
          <mxGeometry x="390" y="168.63" width="120" height="60" as="geometry" />
        </mxCell>
        <mxCell id="qm77CVOvTGz22B-kU-BN-14" value="Enemy&amp;nbsp; AI&lt;div&gt;(Pathfinding, Comportamiento)&lt;/div&gt;" style="rounded=1;whiteSpace=wrap;html=1;" parent="1" vertex="1">
          <mxGeometry x="390" y="251.38" width="120" height="60" as="geometry" />
        </mxCell>
        <mxCell id="qm77CVOvTGz22B-kU-BN-18" value="Wave Sistem&lt;div&gt;(Oleadas, Dificultad, Tienda)&lt;/div&gt;" style="rounded=1;whiteSpace=wrap;html=1;" parent="1" vertex="1">
          <mxGeometry x="390" y="331.38" width="120" height="60" as="geometry" />
        </mxCell>
        <mxCell id="qm77CVOvTGz22B-kU-BN-23" value="Gameplay Foundations" style="swimlane;startSize=30;rounded=1;" parent="1" vertex="1">
          <mxGeometry x="380" y="120" width="140" height="280" as="geometry" />
        </mxCell>
        <mxCell id="qm77CVOvTGz22B-kU-BN-24" value="Backend Services" style="swimlane;startSize=30;rounded=1;" parent="1" vertex="1">
          <mxGeometry x="527" y="120" width="140" height="280" as="geometry" />
        </mxCell>
        <mxCell id="qm77CVOvTGz22B-kU-BN-19" value="Upgrades&lt;div&gt;&lt;span style=&quot;background-color: transparent; color: light-dark(rgb(0, 0, 0), rgb(255, 255, 255));&quot;&gt;(Mejoras de Stats)&lt;/span&gt;&lt;/div&gt;" style="rounded=1;whiteSpace=wrap;html=1;" parent="qm77CVOvTGz22B-kU-BN-24" vertex="1">
          <mxGeometry x="10" y="91.38" width="120" height="60" as="geometry" />
        </mxCell>
        <mxCell id="qm77CVOvTGz22B-kU-BN-15" value="Roguelite Meta-Progress&lt;div&gt;(Monedas, Personajes)&lt;/div&gt;" style="rounded=1;whiteSpace=wrap;html=1;" parent="qm77CVOvTGz22B-kU-BN-24" vertex="1">
          <mxGeometry x="10" y="181.38" width="120" height="60" as="geometry" />
        </mxCell>
        <mxCell id="qm77CVOvTGz22B-kU-BN-25" value="Database services" style="swimlane;startSize=30;rounded=1;" parent="1" vertex="1">
          <mxGeometry x="680" y="120" width="140" height="280" as="geometry" />
        </mxCell>
        <mxCell id="qm77CVOvTGz22B-kU-BN-21" value="Global Variables&lt;div&gt;(Game manager, Audio manager)&lt;/div&gt;" style="rounded=1;whiteSpace=wrap;html=1;" parent="qm77CVOvTGz22B-kU-BN-25" vertex="1">
          <mxGeometry x="10" y="131.38" width="120" height="60" as="geometry" />
        </mxCell>
        <mxCell id="qm77CVOvTGz22B-kU-BN-31" value="" style="swimlane;startSize=0;" parent="1" vertex="1">
          <mxGeometry x="200" y="100" width="630" height="320" as="geometry" />
        </mxCell>
        <mxCell id="qm77CVOvTGz22B-kU-BN-22" value="Frontend Services" style="swimlane;startSize=30;rounded=1;" parent="qm77CVOvTGz22B-kU-BN-31" vertex="1">
          <mxGeometry x="20" y="20" width="140" height="280" as="geometry" />
        </mxCell>
        <mxCell id="qm77CVOvTGz22B-kU-BN-10" value="HUD/UID&lt;div&gt;(Vida, Oro, Tiempo, Oleadas)&lt;/div&gt;" style="rounded=1;whiteSpace=wrap;html=1;" parent="qm77CVOvTGz22B-kU-BN-22" vertex="1">
          <mxGeometry x="10" y="48.629999999999995" width="120" height="60" as="geometry" />
        </mxCell>
        <mxCell id="qm77CVOvTGz22B-kU-BN-11" value="Render 2D&lt;div&gt;(Sprites, Animaciones)&lt;/div&gt;" style="rounded=1;whiteSpace=wrap;html=1;" parent="qm77CVOvTGz22B-kU-BN-22" vertex="1">
          <mxGeometry x="10" y="131.37" width="120" height="60" as="geometry" />
        </mxCell>
        <mxCell id="qm77CVOvTGz22B-kU-BN-12" value="Sonido&lt;div&gt;(Musica, SFX)&lt;/div&gt;" style="rounded=1;whiteSpace=wrap;html=1;" parent="qm77CVOvTGz22B-kU-BN-22" vertex="1">
          <mxGeometry x="10" y="211.38" width="120" height="60" as="geometry" />
        </mxCell>
        <mxCell id="D-ZUbSENo2Ke0Ngr0vWy-16" value="" style="rounded=0;orthogonalLoop=1;jettySize=auto;html=1;entryX=0.5;entryY=1;entryDx=0;entryDy=0;" edge="1" parent="1" source="D-ZUbSENo2Ke0Ngr0vWy-3" target="qm77CVOvTGz22B-kU-BN-31">
          <mxGeometry relative="1" as="geometry" />
        </mxCell>
        <mxCell id="D-ZUbSENo2Ke0Ngr0vWy-3" value="" style="shape=image;verticalLabelPosition=bottom;labelBackgroundColor=default;verticalAlign=top;aspect=fixed;imageAspect=0;image=data:image/png,iVBORw0KGgoAAAANSUhEUgAAAPoAAAD6CAYAAACI7Fo9AAAABGdBTUEAALGPC/xhBQAAACBjSFJNAAB6JgAAgIQAAPoAAACA6AAAdTAAAOpgAAA6mAAAF3CculE8AAAABmJLR0QA/wD/AP+gvaeTAAAAB3RJTUUH6QMRDyMuO7mXUwAAJ/JJREFUeNrtnXd8VFX6/z/nTsskk15ICCT0LigI0pNQAuhafq6guIquX9e2yk9KUJTVrB0I6Np3XV0V1wK7rt8FSaEkSFdQlA5SAimQnswkU+893z8CimaYmSRT7tx53q8Xr4TMnXvPPef5nOc5HSAIgiAIgiAIgiAIgiAIgiAIgiAIgiAIgiAIgiAIgiAIgiAIgiAIgiAIgiAIgiAIgiAIgiAIwk9kr9jSPTc3Vwi2dOfm5grZK7Z0pxKUH4yyIPBMXVrUVaXWjgPHFA6MB/ggxvD7ggVZ7wdXBbX5HsbZuwAqAWzj4BuZgO2F8ycdpFImoYekx2YSn84Yz+BABoBuToqmwqrn/Uv+mGUKhne6Yem2SKvKfhRAipOPyzhHCWPYIogoyH8sq4yswL+oKQv8w7SVmwdDZL9hAq7nXBoLBsZdfoN31bXgcQBLguH9LGrbYsZZymU+7sYY7gBwh6QCpuWVHALjaxnHuoIFmdvB3GQFQR5drmTmFofpIjCeC+x6xvnNzr22e/0wFQYWzMs6LesIZfmWnoxJhwCEdcAEqwCpkDFhrSWM5wdLBEMePdTD8rzNIwQI93HgNoBHMd4pZxXGRbwE4DY5v7PApGW8QyIHAJ4EsDs553fqzKxpWt7m/wVnHxYuzNxEnp48uqyY8vLGXmqHag4Yu5OD9/Ly7TnnfExRzqTdcnz36ctLxnDGd/jg1ic4wypIwodFORmnyMpI6AEKVwsjIGhuZVy4C+ATfJmXDGxzwcLMybLse8grLgaQ6cNHcM7xFQP7QNts/Gxt7vUtZH0kdJ8zdWlRV5WguY8zPAwg3l/P5WDZRQszN8hK5CuLp0NCvh/NtYkzvC8I/GW591uQ0IOU6XklIznwOMBvBKDye0Fx7ClYmDlKNu1Wztm0lVv2gPPhAXi6CI4vJBVe2jA/aw9ZJwndCwIvHs+BxwBcF+j8YozNKliQuUYeTZfi2xjDJwE3YIbtksSWFuVkriVrJaF3LExfWXy1IOEbGSXpSFRa9ZA1s2aJgUzEzNWrVU1nkg4BvJ9cMkYSMJK8++URKAsuj0oUbTJL0oCm0oRbA52IpjNJt8tJ5ACggWAliyWhd6whyDVmGQZhSwK54GXm6tUqgD8pt1zhDgf1xpPQO4aaS/ITOsPAHZEZMwPmzVsjiv5yyxYHF81ksST0DmET5Wk8jLOnAuHVc3NzBTC2WI55YtdqyKOT0DtGXFi4TI2HD9phyLjZ30+9EEkMkWOO6FVm8ugk9I6xZt4YC8AlWXp14An/1i2cMY7FMi0qR/7ca6kzjoTeUTUxDrAmmabuqqnLNmX762HZK7ZMBzBMpnnRSMZKQlesEQmCsMh/EQTPkW19DEZCJ6F3mgYZp21ydt7mEb5+yNSVxVcDyJJrJnAm6zKSBbQe3b2/aATkuyyageXAyXr1mSt36OtZSwqg0QmiGC5wFilySatSqaIBQBTFRhUTbBLjRoA1SyrRFsvDK9fMH9umU0uQWI6c8wCcN5GdktCV7NEB4JbsvOLHGZDMGdIYRxo40poka6IKKgBSa+DNAIEJ4Bc2whAEAby1ogAAqEQVmmDFtOXF1WA4wxnOMI4zHDgH8N9SGZHQFY7UKPMlASoGvAjg503oOpNchkQAiYxjRGdv5b+ohjrjqI3eeTOqojyQNxzsPOUCCb2zZkRCpzIioSvenzPy6BR1kdCV30LnFBbKvowkkcqIhN5pMyJvIX8zpjIioXcOlUgeXf5NdDsJnYTeOcxmnAPgoJyQLfaYng1UGZPQO0dJbpYDjFVQTsiWskDvoUdCV0xoyM9QJsi1aEBlQ0L3DgwopVyQadkwqoRJ6F5CImOSsUtnVDYkdC95DTImOYdbZZQJJPROk7285Hr4e9smoj08PW3F5jngnA4jcd38JJwxbWVxH0h4HcA0yo0giOA5tqiY+FD+wimHKDdI6G6ZuXKH3ihaH+MMjwPQUY4EFXbO2FuQrE8U5UxrpuwgoTtlet7maYDwJgfvRbkR1JzgYA/K7ZjpkBX6tLzNiwB2M2P8yYIFkzYFKh3Xvbg1VtSIL3HwP1DlpyjWaIGH1i7MqglUAqYu2zxOEIQXOONrixZk5YWc0KevKL6Dc3x4SRo2QpCeLJw/+Wt/piM7r2QGA94HeBLpQpGcZ+B3FSycVOhXu1q++RrG2PMAJl/sRgDndxTmTPo4ZISenVcylQHrAK791UccDP8VuPiErztVRvx1jybe2PQ8A1tIXlzxcIAtr4k0LNl7/9V2n0apKzcPhiS8APAbnMjNxph0bSCiV78b+LRlm4ZDEEoARLq4zAHg74JW9VT+3InV3k7DjKXF3SQVVgMYQxoIKXYKImblP5bl9bH37OWFSYD2GcZwLwCVC8k1SRLP2LAoa59ihZ69fEtPxqQdAJI9/IqJcaywNOOlktwsi1eaDMuLMznDJ+1IA6Esahj4Hd4K5WfmrtY2GRIfBPBnANEefq2SqTC2YF7WacUJfcarXyVKNmkbwPt14OunOLCoaGHWvzr6/NzcXGGnYeISgD3lusYlQgARjP15jLHk+dzc3A6frZedV3wLA5YD6NGBrx9x2MTxm56YUqsYoc94db1OsoVvBvjYTiWWsSIBjkfWL5hyrD3fm/zCxni1RvURGKaTjROXkO+wiXe2V2zTl27uz1XsNQBTO6m+rVHG6ilrcmfZFCH0aXkl7wL8Hi/dzgqwFVqT8fm1ude7PdZ46rLiKwUBXwBIJ7smnFAKxm8sXDDpew/a4REQNE8yLixw0pHcQQXydwoXTLov6IWenVfyCAN/1RcFxBifW7Bg0n8vW/Pmbb6Zg30IIILsmXCBiXE2pyAn8z8uwvSbGGN/AedpPlDhw4ULst4IWqFnL980iTGhED49EYatdqgdczc9OuUX2wlNW178GBheBA2dER7BJcaFxwtyMpdf+tdrlxUnSwJe48AtPny4nXFkF+RklQSd0Ke/XNyDi/gGQIIfSqmBgz9WtCDrHQCYtmLLSwBfRMZLtFvujL1aND/jUTDGp68omck5fwtAvO+fzOoESRyVv2jyiaAReuYbxQatGTsYcIWfy2kjwCsBdieZLNEJua8CWFf8PKvNT7AfrHo+ruSPWSZv39n769E5Zzoz+yAAIgeAKSRywguCu9P/IgcAPlTXgvd9sbbe6+PJ0w0Zc8Ewn4yFIDoUYw/qs+N0zYkNH3zt3dt6kezlxUPA8DUD9FRiBNFhrJKE0d6cJit4T+SFEQxYTSIniE6jEwSsznyj2CC/Nrqg/QsYBlIZEYRX6Kuz8JWyCt0vzPldQ2VDEN5usrPbCxZmfhJwoWev2NKdcel7ALFULAThdRo5F64qysk4FbDQPTc3V2Ccf0oiJwifES0I0qrc3FwhYELfYcj8Y2dXpBEE4RrOMW5nZMaDAQndpy4t6iqoNIfg+WJ7giA6jlEQMaiju+N02KMLas2bJHKC8BuRkgpv+zV0z84rvgUcN1LeE4RfuW7ais2/9UvoPuPV9VGiTX+IAamU7wThd86p7epBXy6eUO9Tj85t4ctJ5AQRMJLtaseLPvXoF9aYnwRt5kAQAYRLTMV6t2cX2XZ59IJ5WafB8F/KaIIIoMy5UNDeraLbHbpLDvtDABopuwkiIBghsAfa+6V2C33DY9kVjPOnKL8JIgAwLC5akHHW50IHgNHNX70OsB2U6wThV3ZHda/u0Fh6hzvVpi/fOJQz1R4AGsp/gvC5K7dBkIYXzp90sCPf7vDMuIKcKT9whuepAAjC93DGn+moyDsldACwGfE849hDxUAQPuW7WkPkss7coFNCL8nNcjAm3gXAQmVBED7ByjnmdPZc905vJZW/cMohgD9L5UEQPgjZgdyinKwDnb2PV/aMs5rYMoB9TcVCEF5lt82EPG/cyGtTWWcs29RbEoTvAERS+RBEp2lmIh9R8Niko964mdd2gb1wZhQd3EAQXonZ2SPeErlXPfpFpuUVfwrgViopguiwLD8vXJj5W2/e0etnr1lVeACMnaHCIogOOHKgHILlD96+r9eFXjIvqwHA3QBEKjaCaBeiwHFH4fzpdbIXOgAULsgs5gw05EYQ7WtH5xbkZJX44t6CrxI91rjlWQCFVHwE4RGbItOqX/TVzX26U8yMV79KFG3id7T1FEG4pEzQqobnz51Y7asHCL5Mff7cidUqhlsAZqOyJAinOBgw25ci97nQASB/QdYuBu+dCkkQSoIzvrxgYdY2Xz9H8MvLcJynIiUIJ21niVX54zlqyupfolUL6BYbjuSYMMTotQjTCHBIHBa7iPpmG8rqzTjfaIHEOWVWABAYQ5foMHSL1SM2QoswjQpqgcFil9DQYsO5RgvK6ltgc0iUWST0X9I7yYCJ/ZMwrHsM+naJhEpw3Udptok4UN6AvafrseVoFeqbqQvCl8RFaJExIAnD02MxJDUGeq3K5fWixHH8vBHfn2nAlqNVOFltIqGH7IsLDFkDu+DmEd3QM9HQru/qtSqM7BmPkT3j8YeM3vjmVC3WfHMWB8tpc1xvMjg1GjNHpmFUrzgIzPMBIpXAMCAlCgNSonDrNWk4WW3C53vKUHzkPESJk9BDhbF9E3B/Zh90iQrr9L1UAsPo3gkY3TsB35bW463Nx3G2roVU2gnS4sLx0OS+uDIt1iv365VowMIZA/C7sen4a/EJ7DpRQ0JXMlF6DeZP64/RvRN8cv/h6bF4a87V+OfOUnz6dSmoGd/+9vfs0emYPTodasH7UzxSovXIvWkIdhyvwctFR2G02EnoSmNAShSWXD8YCZE632aoSsBd43tiaPcYvLDuUEgZU2cr4Sd+M8hrXtxdRNeniwHPrT2IY+eMoVGJhsJLXpkWixdvGeZzkV/KVemxWDH7KiR5oXmgdOINOiybdaVfRH6RpKgwLJt1JUb2jCOhK0Xkz958hdueWl+1NZfOGoa4CC2p+TLEhGuxbNaV6JEQ4fdnh2lUePqmKzCiRxwJPZjp2yUST980BBpV4F4zJVqPZ28eijCNilT9K/QaFV68ZShSY/WBa7sKDEuuH4zeSQZF57Vi2+gGnRpPXD8I+g4KTJIk7N+/HwcOHER5eTnMZjMAICI8HKmpqRg6bCgGDRwE5kGnUe8kAx7N7o+XvjxE6r6Eh6f083hok0scBw8dxP4f9qO8vBzNLa0jG+H6cKSmdsWQK4ZgyJAhEIT2V+p6rQpLrh+Mhz/ai2arg4QeTDw0uS9SotvvKUpLz+Czzz7Dzh070djoelw8NjYW48ePw22zb0NKSorLazMHJGHniRpsOVJFCgcwaWAXTB7Uxe115eXl+OzT1di2bRsaGhpcXhsdHY1x48bi1ttuRffu3dsXecXo8eCkPsjLP0JCDxau6BaDrIFd2vWd+vp6vPfeP1CQXwBRFD3+ztq165CfX4AbbrgBd909B5GRl98E94HMPthzqk6xXsNTwrVq3JvR2+U1TU1NeP/9D7Bu7To4HJ7lV2NjI9avz0dhYRGuve5a/P73dyMmJsbjdE0elIwNB87h+7MN1EaXOwzAA1l92rXQ/scff8SDDzyEL9d96bHIL8XhcODzzz/HA/c/iNOnT18+AojQ4paR3RHq3HZNmssOylOnTuHBBx7EF//5wmORX4ooilj737W47w/34+jRo+2ynXszevt2kwYSuncY1Su+XR0r27dvxyMPz0VVVedD6srKSjz8x0ewd++3l73mxqtSYdD5P5CK0mswoV8ibh7RDTeP6IYJ/RIRpff/QbgROjWuG9b1sp/v2bMHjzw8F5WV5zr9rJqaGsx7dD527tjp8Xf6donE1QocclNc6H7j8G4eX3v8+HE89+zzsFqtXnt+S0sLnn7qabz2+qvo2bOn07B1yuBkfPFtmV/yIy5Ci3sm9kLWgC5tFuuIEsfmw+fx3taTfluYM21IMiIuU9GVlp7Bn3OfQUuL96YQWywWPPPMs3jllZfRf0B/j23om1N1itKFojx6vEGHK9M8a5PV1dXhicVPelXkl4r9T0uegtHofNbVpEFd/JIfvZMMeGPO1ZgyKNnpijyVwDB1cDLenHO134aXpgxOdvp3o9GIJxYvRnNzs9efabVa8fTTT7vtzLvI8PRYxc19UJTQx/VN8HiV09/f+Ttqa2t9lpaKigqsWvWR08/6dYn0+Yy5KL0Gz/12KGLD3RtsbLgWz9481OehfEqMHr0uM5z2/vsfeCVcvxxVVdV49933PBMFYxjTJ4GELleGdffMm588eQpFRRt8np4v/vMFKioqnH7maeTRUW4fne6RyC8N8W+7Jt2nabrcO1dWnsO6tet8Xh756/NddpZ2xJZI6AFgYNdoj6779JNPIEm+34HE4XBgzep/Of1skIdp7QgMaPfwIgBMGpjk0x7nASlRzsvj009ht/t+8Y8kSfj0k888unZwajQJXY5E6NQetascDgd27drtt3Rt27YN3Ml61e5x4T57ZnS4FtEdCMNjwrU+Dd/T4trOZ+cSx/Zt2/1WHjt27PBoyC7eoEO4Vk1ClxvJ0Z61efft2weTyX9bC9XW1jody02J8d387s4s4Inw4dBfckzbMjp8+DDq6vzXw20ymbB//36v2hQJ3Y94Oja9f/8Bv6fthx/aGlaENvQWuUQ48ZCeis7X5eHvSo+E3kF0Hi5eKS8v93vanD1Tp1GBsdARucAYtGrBSd5U+D0tFR7agF5BlbFihO4QPetc82fYfpFmJ890SDyktpqSOHe6MWMgysPTZ9pFiYQuN1psHs5RD4C6nHXGmW2ht7DFbG9bRhyBKA8P02sTSehyo87DKZwGF6vLfNZ/YGg7SaTWFHp7wdeZ2s5CjDQEojw8282m2mglocuN6iYLLHb3NXDXrl39nrbUbm3n34filtBldea25ZEqj/L4NRa76LRiIqEHGA7gVLX7edJXXDHE72lz9syTVaF3esiPVUbZlsevOVFlgpK6UBQ1M+77s/Vur7nqqquchtK+IjY2FgP6D2jz9+/O1Iec0H8oa2jzt0EDByEuzn/LQg0GA4YOHer2un0KKx9FCd2TpYVqtRqjrhnltzSNnzC+zb5yTWY7jp83hpzQj1Qa2+xzzwSGsWPH+i0NY8aMhlrtfnx8z2lapipbDpU3orLR7Pa622+/HcwPg9hqtRq33jqrzd9LjlSF5BlgDlHClqPVbf4++/bZHomv08YuCJh9+2y311U2mHGkoomELud2euF+90sde/XqialTp/o8PTfedGObzj8OoPBAJUKVgv1t3z0lJRm/+c11Pn/2jBnT0aNHD4/SqLRqWHFbSa3dVw6TB5sv/uG+exEfH++zdKSkJGPOnDvbNi9O1uJEVege4/vjeSP2OgmL77r7LiQnJ/vsuQkJCbjnf+5xe12z1YEvv69QXL4rTujNVgc+33PW7XXx8fF4/oXnoNN5/5gmvV6PZ597rs2OsBLnWLXjNEKdD7efbjOJKDo6Gi++9ALCw72/qk+r1eKZZ/+M2Fj3Rz6t/uaMR46ChC4D1nxzFmUejFP369cPi594HFqt1qsifzr3afTq1Xa/uPXfV4RkJ9yvOXquCflOQvj09HQ89dSfoNd7b2WfTqfDkj8twYABA9xeW15vxud7yhSZ54oUul2U8HLRUY86vCZOnIjXXn8NSUmJnX5uYmIiXvnLyxg1amSbzyobzPjHtlMgWnnvq5M412hp8/dR14zCa6+/6pUwPj4+Hi+/shLjx49ze61D4lhRcERR89sVL3QAOFjeiA+3eyasvn374M233sSMGTM6dKSPWq3GTTfdiHf+/jf07du3zec2h4QX1h0K+YMbLsVkdeDFdYecCqtXr1546+03ccONN0Clav8KMpVKhet+cx3+9s5fPfLkAPD+tpM4VNGo2Pz2yzq8Ptl3jwbDdH+/3KHyRiRE6tCni/v51Hq9HuPGjcXEjIloMZtRXVUNm831fPTo6GhMnjwJTy5ZgqnZU5229znnWLr+sF8nyESGaXBTO7a9vpT//a4cRot/KqRakxWlNc2Y0D+xzXBnWFgYRo8ejaysTFgsFlRVVbndsTcyMhKZmZl4cskTmDFjhsdNgPwfKvGPrScDpcHCExs+2OXrhyj27DWgdSjrtY3HEKZRIXNAkkff6dGjBxYvfhyiKOL777/HwQMHUVZWBlNzMxgYDAYDunXvhqFDr3B7qJ/EOf6y4Ri2HqsmF34ZdvxYg1c3HMPcqf2c7uDbvXt3LFqU89Ohl/v3H8DZs2fRbGqd7hwREY5u3bphyBVDMHTo0HZHAMWHz+O1jccUn89qpb+gKHEsXX8IjWY7brwqtV3h3/DhwzF8+PAOPddqF7F0/WHs+LGG1OyGgv2VMFkcWHTtQKebUwCtk12GDRuGYcOGee25n+8twztbfgyJfQGEUDAkzoG3Nh/HsvWHna6J9jZldS149JPvAibyzsy6cwRoxt6249V4+KO9OF3T7PNnmW2tlfDfSn4Mmc0/1AghNh8+j8MVTXhoch+M7On9yTIOUcK/95Th492lsNoDt2lBXbMNosSdns7iroKoaw7cOvkztc149ONvcfvodNx8dXeoBe9PU959shZvbT7utMefhK4gKhvN+NPn+zGyZxxmj073yv7qF88w+3R3KcrrzQF/R4coYd+Zeozo0b5VYd+dqfd4Sy5fYbGLeG/rSRQdPIfbrklzemZcRzhY3oiPd5U6nZVHQlcw35yqwzen6jAgJQpTBidjQr/Edu+FXlrbjOLDVdh06JzsdiP5eFcphveI8/hABg7gs91nZJP+sroW5OUfwYfbT2PywC7IGpiEtPiIdt2jocWGrceqsenQeRypbEIoo0aIc6SyCUcqm/DGpmPomWDAkG7RSIuPQEp0GKL0GoRr1RAlCS02EXXNNpTXt+B0TTP2nWlArYx3IDlY3ohV209hzrieHl3/wbZT2O9kvXigqWqy4JPdpfhkdykSInUY1j0GPRIi0C02HHEGLfQaFVSCgBabA01mOyobzDhT14L9ZY04XW0CB0FCv9SjceBktQknq5Wz4OTjXaWob7Hhvow+l926uMXmwF9LTqBwv/xX1NUYrdh06DwZKwmd+DX5P1Ri+/EaTB2cjKvSY1tPceUc55us+K60HhsOnmuzGQRBQieCkCazHf/ecxb/9mBVH6FMBMoCgiChEwRBQicIgoROEAQJnSAIEjpBKB4GLpHQCULhcDASOkEQQSR0lcCoQiEIJ2hUgkoxQu+XHJlGRUoQbRmUGt3LH8/xyxTY28ekNVU2WNHQYkOtyYb6Fhvqmm2oM1nR0GKHxGmNEaHgsJkxxEZoERuhRVyEFrHhWsQbtIgJ16JrrL5umVKEPrJngsstUE0WB2qbragz2VDbbIXJ4kBdsw21JuuFn62/03bJhJzQqgUYdGrEG3SIi9D+9DPOoEVchA6RYWrEGbRIigxztXmGX7YH9teiFpdNBEOYGoYwNdLdbCxgc0g/VQhGiwN1F37/ZaVgRX2LDRQkEJ0RcHyE7oJgtYgz6BB/QcAGnQbxl/yd+VgbihJ6ewogJVqPlGjX+3U7RAn1LXbUmlqbCzUmGxqaLzQXmn8ZJRChQ7xBhwSDDrERGsRFtHrf2Iifw+h4gw6x4RqoVX7tO1aU0Jk/c06tEpAYqUNipOsDFCsbzfh4Zyk2HDxHKlAw2UOSMXt0ulsHESCYkoQuy+G1lGg9FkwfAJ1awDoFHpVLANdfmYo/Tu4r5yQKShKgrMfR75nYyydbCxOBRS0w3DOhl9yTSaG7vwjXqtE7KRJHz8lvp9DIMA3SE8KhUcmzrrSLEkprWmS5HVXvpMjL7pVHobsPWPDpPqsoSXtTY8M1qTFh0alx4UkJBp0+JlyLBIMWOk3gCyPOoJVV6es0KjyQ2QfTr0hucwCh3OCcI39/Jd4u/hE2h3yOHZZLmVrsImpNNjS02FBttBrL61qqyxpamirqLXa1AItihH6wvD4cYCMut7e2WsXEcI1aTIzSCQkGnfrX45EXhzNiI7ROD+LzjueU1/Z5j07th6yBXYIiRGaM4dqhXRGmUWHZ+sMyioZ8W6aXDvf+eoi3ymi1VjVZHSazDc028dJx48gL/y5Wk18oRugMzOWJXg6Rq5pEu6rJYseJKtfbLRvC1L8Q/68nKxjC1EiKCoO+nVFCZJhGNgaaGKlDZpCI/FKyBnbBB9tO4XyTPI47iupAmTpECY1mO0xWx08TuFp/ts7kbJ3RaUO1yeruVBvdhX+uoyE/rV7zjxvjTATzzgwWk8UBk8WBM7WuD+OL0mt+mmoYG6HF6N4JmNAvMSg8+lXpsQjGrkEGYFhaDIoOyGO40uCmTLceq8auEzWob/55anaT2e7nPOPKEbrEOPe34TaZ7Wgy21F6oUKQOFwK3SAjj54aG45gJTVGPml3F6VtP16NkiNVge3fYApaj+6vWssVRjc1tZw8erdYffAKPU4vI6G7LlOjJfBrJwQl7TDjr1qrM4UaSR7dSx5dTkLXuLGJwA8JcklpbfQAH3fnrlDl4tEZA7q6EAsHsO1YdUDTOL5f4mX7EFJjw8EYZLGoyF2ZmmTg0RXVRpdF6O6mUA0yEXpiZBi06ssHWrVGK55fezCgafzovjFIuMw6Aq1aQIJBJ4tjpA1uPXrghc4FJiqnjc4Q8PEWk9UO7sLNyCV0T3XTPi+rbwl4GssbzEHR9HDl0TnnMFllMJtPYi2KETrnLODWyTnQbL185RmhU7vaHEA27fPyenPghe6mspFDZ6JKYAjXqV1U/A6Z7FkgNSvHo3PI4tBxV+10dkHsARe6m84sOQi9rM51GrrKwKMbdGqXcxHk0D6/gIKELvBKeQhd/j3v7kL3chmE7hUNLZ16B7+E7XrXZdkkk0U4gqCqUI7QRZyWu0d316aTTejeIAOP7iaqkEPoHgxj6AAg2ITTihH6+pzM8xwwB17oDlkLXS0wdIkOu+znosRxrjHw88jPNZghuli9kBytD/j6foPOtUeXR+jOmr5cPKFeMUIHY5wBBwKdrSY3Hj09IQLxBp3L4S1f0sWNQM43WdwtpPALDom7XLiiEhi6BGjbJq1aQLxBh/SE8E5Fd/7RBf/eb07EXw/iYN8w8JFy9uj3TuyNeyf2BtC6BNFoaV3FZLI4YLQ4YLLaf1pUY7Q6YLJc+L/1wucWO+qabR1OX7cgaJ9fmhZXE3tSY/WdSu/FrZQNYRpEhqkv/H7h/z/9roZBd+HzMDXiI3Qez4eQRejO8bXihA7wrwE8JOc2ujPPEG/QtesZnakggmFo7ad2ep0ZI3u6rrS+7qhgDToYfDwCYpLD9FeOPcrz6KJ9A1NpOAK4rZQ/avHOVBBuxSUjobvrFLx7fC/cPb5XwJpB8vfoXBI1UrG/nua3UtjwWHYFGPsuWDx6INqW7kRRIbPQvbPvE8q2wMG+3vTolPOKEzoAMImvDWTm/lhlQjAjK48uo7R0hOPnA2sLDP7Vgn+FzqVVCOAythqjFbtP1galYdocEqqNFtmkp9pokdVGkO1h14maQJ/SI4oO8SPFCj1/0eQTDKw4kDn8cuFR7C9rCDrjrGgwy+o8Oc5b0xRs/HC2AS8XHg1w3rHCjY9PPePPZ/p/hgjD2+CYFKhMbmixYdHqfRicGo2BKdGICdcg8kKPcJS+9efF/6tltJf6t6V1shPNd6X16JEQIZv0OEQJRosDRosdRosDTWb7T/9vaLHjcGUjDpY3yqHCfNv/svMzM1evVjWdSTwAYIDca3+9RoXIX4m/tTL45d8iwzSI1KsR5aMKwmRx4JF/7kWlzDxoaqwer/5uhNcXA10UbJPFDqP5Z+Fe+vNSERstDhjNdpjtIuQP+6FwQcaVYIwrWugAkJ1X/DsGfASF0t4KIjJMg6jLVBCltc14pegoDlc0yfJdB6dGY152f3SLC3cq2KaLYlScYDsYtgMzixZm/UvxHv1nr570LcCHgnBaQYRr1ahvsaG8vkX2Z70LjKFrrB4JBl3ICLaD7B1j2jIqNzdXCgmhA8DUZZvHCQLbCoBONyRCAC4JjI3LX5C1KyCVcaBee8OiSdvB2SoyACIkYHg3UCIPqNABwKrm/x+MnSErIBTOWbVN81hAm1eBfHjJvKwGiLgDADXmCOWG7AK/01/rzmUpdAAoXJS5lXE8RwZBKJQ/5c+ftCXwLQdZVHqcZa8o+ZgBt5FdEApiTeGCzFv9PWYuS4/eWt0wrjOZ/gfAN2QbhDJgO6wmzJGDyOXj0S9wfV5xgg0oBjCEDIUIYpH/AMGSVTh/umzmLctuDDt7eWESg7YEDAPJYIggFPkxh9ox0Z9rzYMndL+EopxpVarWRS/7yGiIIGMv59YJchO5LD36RTLfKDbozPgcwFSyHyIIKBa05pvy514ry0UJst3rp+SPWSarCTeAsw/Jhgg5wxnejTJVT5eryGXt0X/Rbs/bfB8Dex2AhsyKkBEOcCwpzMlaKvueg2DJ0ey8TRMZU60C52lkX4QMOC1J/I4NiyZtD4bECsGSq0ULJ38laFqu4Fy569iJoGGN2q4eHiwiDyqPfinT80pmc+AVgCeRzRF+5BxjbG7Bgsw1wZZwIRhzu2Bh5idWFe/PwP6GAO4qS4QMHOCrHDZxSDCKPGg9+i+9e/F4cLzMGa4meyR8wG7G2byCnMydwfwSytjdhXM2bcWWOwD+PIDuZJuEFygF508ULsz6RC7z1UMudG9bXTFeuDBzVZSpug8Hv58D5WSnRAeNqQocj1tNGFCYM+ljJYhcOR79V8xcuUPfJFnvAzAPQDoZL+EBpznYSpuJv1OSm2VR2sspemPG3NxcYUdE5nWM8cUAxpAtE06iwW8B6S9WI/u4JDfLodjXDJXynL68ZAwHHgDjswCEkYWHLhwwM+AzzvnbRTmTdodEfRZqhTxtZUEcRN0cMNwOYCSZfUixm3H+sUXNPiyZl9UQUoFLKJf6lJc2pKnU6v/HGGZyjnGkA0Wa+CHG+RqRC//csCjjeMjmAhlCK9nLt/RkkGYBuIs2vVCGuCWGT4sWZh2h/CChO2VG3sZBEldlc7CpjPEMABGUK7LGBGALgA2iSijaOC/jMGUJCb1dZOYWq7UGPoxxNgUMUwBkgJbLBhoRwD4wbISEjYLOvDV/7rVWyhYSute47sWtsXaNI4MxjAbHKICNAHgU5YxPaWRgewH+Ned8l1XNtoRaZxoJXQZMXVrUVaXWjpOA8QL4CIljOAP0lDMdwg6w44C0lwPbmIDtY5q+OhyIE0hJ6IRLRvx1jyau0TiYqdCfcd4fwAAwoT847wfAQDkEADACOAbGjgI4Akk6CgFHawxRh/bef7WdsoeEHtRkr9jSnUlSf8Z4P85YX8bRjYN1BXh3AMkKav/bAZwD2FmAl4OhnIMdEyAdYw52NP+xrDKyBhJ6SJKbmyvsjJ7UReJiqorzrlxiaWAshQEJHDwWQMxP/zhiwBDjx4rBDo4GMDQAP/9jYPWc82oIqGTgZ0XGKgSmKi98dMI5pSwIIaETgY8QlhdGaFXqGDtYDJcQJkAQOOfRAMAZ0wjsYlOB6yTOwy/9rsBYC8CsACBxmBjndgBgjDVKkCQmwKIBb7CJjoainGnNlNsEQRAEQRAEQRAEQRAEQRAEQRAEQRAEQRAEQRAEQRAEQRAEQRAEQRAEQRAEQRAEQRAEEWT8H6O03mmY5wpOAAAAJXRFWHRkYXRlOmNyZWF0ZQAyMDI1LTAzLTE3VDE1OjM1OjQ2KzAwOjAwhm3gTQAAACV0RVh0ZGF0ZTptb2RpZnkAMjAyNS0wMy0xN1QxNTozNTo0NiswMDowMPcwWPEAAAAASUVORK5CYII=;" vertex="1" parent="1">
          <mxGeometry x="480" y="460" width="70" height="70" as="geometry" />
        </mxCell>
        <mxCell id="D-ZUbSENo2Ke0Ngr0vWy-8" value="" style="shape=image;verticalLabelPosition=bottom;labelBackgroundColor=default;verticalAlign=top;aspect=fixed;imageAspect=0;image=data:image/png,iVBORw0KGgoAAAANSUhEUgAAAPoAAAD6CAQAAAAi5ZK2AAAABGdBTUEAALGPC/xhBQAAACBjSFJNAAB6JgAAgIQAAPoAAACA6AAAdTAAAOpgAAA6mAAAF3CculE8AAAAAmJLR0QA/4ePzL8AAAAHdElNRQfpAxMFJQOPoiH9AAAC4ElEQVR42u3bMUjUURzA8d8LC4rCwQgkocmWnGooEypJiKIhamgJ3GpqLCKoqcSC1iAXCQqECAJpaClsqKGhISGUgoQkWjMIh3gN2YF6yR349+7+9/ls/u9/93+8r/f+906MAAAAAAAAAAAAAAAAAAAAAAAAAAAAAAAAAAAAgBaT1nowH4n+Bo3rWZpZMZYDMSRXzd6m1/9/sGPNp56I6w0a9OdYET0GYlTLmo3EGtE3mZ/2I7roiI7oiE6L6qjr7HsxW9A4zsTJOp/xMN7IV9EXl4uKPpmmihlz3lN39Kk0rnVl/k7VE93y7p6O6IiO6IhOOffpY3mhoHHslqJZo+81YZZ3REd0REd0RKdZox9LBYkRKbzTER3RER3REZ2V6vwrW/5Z0Di6pWjW6GMmzPKO6IiO6IiO6IiO6IiO6IiO6IiO6KIjOqIjOqIjOqIjOqIjOqIjOqIjOqIjOqKLjuiIjuiIjuiIjuiIjuiIjuiIjuiIjuiILjqiIzqiIzqiIzqiIzqiIzqF6GjZkR/Nm+Wr6GuP6MMxrLXlHdERHdFFR3Ts05vDy7gkV83elyJ6mo5pLS3viI7oiI7oomOfzpJ8P3rX4WW+pwuit46DsX8dXmXO8o7oiE4p7+nzMRlfYkcMxmHT3w7Rc9yK22lx6YfBeBzdEpR9eb+Rbv5LHpFexfFYkKDc0WdidPmB9DHuSlDu6BPp96pjjyQod/TZKsfmYlGEMkffWvWDpH9OKnX0gSrH+n1TUO7o53PPqmNXJCh39G3xJHcu27ZfjdMSlH2ffije5bN5S0RE3pcn4o4AjbDRX8P2xtP4lb9GZ+wy+e0S/e+n+F4T3z7LO237Tm+w3BXnajx157pccHu+WOOZz9O86MXoiQcber2umq83FBsS3fLuno7oiI7oiE459ukv4keDxvWhwNf+FteatMYnv5AAAAAAAAAAAAAAAAAAAAAAAAAAAAAAAAAAAABQ1R/r61aS5hsJ3AAAACV0RVh0ZGF0ZTpjcmVhdGUAMjAyNS0wMy0xOVQwNTozNzowMyswMDowMOlnBvAAAAAldEVYdGRhdGU6bW9kaWZ5ADIwMjUtMDMtMTlUMDU6Mzc6MDMrMDA6MDCYOr5MAAAAAElFTkSuQmCC;" vertex="1" parent="1">
          <mxGeometry x="80" y="240.69" width="81.37" height="81.37" as="geometry" />
        </mxCell>
        <mxCell id="D-ZUbSENo2Ke0Ngr0vWy-10" value="" style="endArrow=classic;startArrow=classic;html=1;rounded=0;exitX=1.007;exitY=0.481;exitDx=0;exitDy=0;exitPerimeter=0;entryX=0;entryY=0.563;entryDx=0;entryDy=0;entryPerimeter=0;" edge="1" parent="1" source="D-ZUbSENo2Ke0Ngr0vWy-8" target="qm77CVOvTGz22B-kU-BN-31">
          <mxGeometry width="50" height="50" relative="1" as="geometry">
            <mxPoint x="170" y="280" as="sourcePoint" />
            <mxPoint x="210" y="280" as="targetPoint" />
          </mxGeometry>
        </mxCell>
        <mxCell id="D-ZUbSENo2Ke0Ngr0vWy-13" value="" style="edgeStyle=orthogonalEdgeStyle;rounded=0;orthogonalLoop=1;jettySize=auto;html=1;" edge="1" parent="1" source="D-ZUbSENo2Ke0Ngr0vWy-11" target="D-ZUbSENo2Ke0Ngr0vWy-8">
          <mxGeometry relative="1" as="geometry" />
        </mxCell>
        <mxCell id="D-ZUbSENo2Ke0Ngr0vWy-11" value="" style="shape=image;verticalLabelPosition=bottom;labelBackgroundColor=default;verticalAlign=top;aspect=fixed;imageAspect=0;image=data:image/png,iVBORw0KGgoAAAANSUhEUgAAAPAAAADwCAQAAACUXCEZAAAABGdBTUEAALGPC/xhBQAAACBjSFJNAAB6JgAAgIQAAPoAAACA6AAAdTAAAOpgAAA6mAAAF3CculE8AAAAAmJLR0QA/4ePzL8AAAAHdElNRQfoCBwCJzDj5MYOAAAOcElEQVR42u2da3QXxRnGnwESciNcAgjUgmAJd1TACwgUkUK9VlsvqBDvVKk2ttZiL9ac4qmI1hJFe4BaK1bQoqdV8AiCRS1UBARFgSRiAojcA4FcIZKnH8BjURMys7O7s/99n3zdzb77/P4zOzsz+74KCSu2QDay0RPZ6Ig2yEIqmiMNQBUOoRqlKMUOFKEQRShS5YnqgkpArEMwGIPRDx01TtuOdXgLS/Ge+lwAu4q2Fy7DGAxBkod/Uo638SYWqAKIHELbhhO4jDa1npN4kjgbPtpmvJoLWEs/VMsFvIrNxOWw4CYzh0X0WyXMZaq4HTTcDObyMwalXcxjK3E9KLhJvJv7GbT28S7proPAO5zrGJYKOEoI+Am3I2ezjuFqPr8tJPzBez0P0AWVcbzQsA03lTPpkmYzQ6jYw9uHH9I1FfB0IWMH722spouq5q1CxytcxTy6rHw2EUpeJiL/Qtc1m0lCygxvOl9lFLSYLdx10dnlQrbGIpwZkd/iSoxRZQJY67UIizAsQt3NCoxSlS4G5uQQgUl4MVJ4gXPwgpvPYgcBU2EmLozckOEiPC0j6sYBfoxR1aNC78R4b2aUdb0MshrG2xfvIi3Cv89KnK3WC+D68LbAKvSw+i9rsBIbUIRCbEUlylABIAOtkI7O6IFs9MZZSLF6xQ04y83xtAuA51jsLNfyfn6XJ4THFI5gHt+3ObclJP19+m7jg+yj/3DgFG5L1CexC3izuMeCtZuYS+Mul0nM4UYLUZSynRD9qrnPeLZ1M6/y/ibKJhzLLZ5jeUqIHm/rMI97rQ4z394eC6Yxz+MadB1HCNUvDU3mBk92rmEP6zH15FpPMa2TZcQvzfyFp7aSz+a+RJXCxz0hzhWyX3SIOz1sm7nC19jGssY4tu1MEboAmGts4X4O9z26ER6+opgodMHm/NTQvp3sG0iE/Yx7mC1MFsC3GW8/HxBYjP24zzDKW+KOtymLjYyr5NBA4xzOKsOJl3ivEXOMYcu4MvBIrzGMNN6fqxkuL+SHEuuTsvSga1kmKw0sezecoQubc7VBtBUub6r127JbDAw7xN6hxduHh2VtScewtw3seiDUiKcaRPxGXPF+y2CBoZihbuhhusFK05EwEzKFOYi/wGDDUJ6qChOwqsRkA4+/H88W/JJ2W/gk/DQoTGKJdtzPxxGvYqm2UU58j8vbtePeQxU/wH0NJiedSEjGFIPlh57xewYP1j7jeVXtAmBVg3naJ50bP8D6n4b+zZnuR392amD8APfTPH6zWuEM4OXYqnlG/5gBZhPoruUucWf8oAjdyYu+YQ2zwmrBnaC7B9Kt+aB/ax7fEu3jBfgU7TOWOgVY/+fWLV6Au2oev1Ptcomv2oHdPt9xxAF31Dx+o3Mv8gU+33HEAWdpHl/oHOBCn+84ZoBLnANcrHl823gB1h1DH3AO8EGf7zjigHU33ZRHHnBzAdyQKpwDXC6ARQ4oLMCHo/EEa0C6eyUPCWCbdvqvTAFs85naMvKAK+IFeK/m8V2dA6w7t7wnXoBLNY/v6Rzgnj7fccQB74g8YN2sIDvjBXiz5vEd2MEluuykvb5bIoAb1nlOtd/ztc8ojhfg7dqjyvOdAjxS8/gD2uvH0Qas6vCR5imj3Nk8TqX9c/tQMV4tGPhA8/guOMeZ9jsUuhVI14UVaniA39M+4wZnAOdon7EGcRN7R/bTlVSDT1ey49eCN2Kf5hktDVqOH7oJrTTP2IOPET/xxSgmFmMSN2vHPTe8eMNcD35N+4zOuDb03+WN6BLAnSZEC+5kkMKhJOQUDhncGq0UDuEifssgpcmDoUb8R4OIlyCuMirDUcvTQou3n1EapZz4AjZLhLaaoWxgY4pRDvgKZiC+4nNG6QGnhxLrDKNYn0GcxdGGKT7HBh7pOMNIz4834Kb8xMi2Kv9zvR8X53mGVVg+jn3JWf7YsGUcYGB5L3iacVr/mxF3Mdk4pf8u9g8I7y7jUl1SWgfgT42LXpRzdACdc5lxfLcLXQBM5Q5jC2v8HW7xOh7yUCSzudA9auPPPBWgmu5PfSKm8s+e4rpTyH5hZRI/8mTl++xlPabe/MBTTB+EnzjVJcRDLRSntPb9EtOY56Hi2dGCe0OE6vGmPu25pOtWXsumFt7Mx1koFD1LiH7VWDsFoos9FYhOZg4LLESxl22F6NftvdFSgfXPOFX/DZn9+TC3W4pgvND8ZpOfoz19wN9z5Im36TGVIzmZ6yxe2anlBacykTMDqyx/ZnYIq7ABRSjEVlRgPyoBZKAVMtAF2chGb5xpOXvGepytKgVwfYj7YCXSItwJVeIstcGlgBxb61DrcSuirIlu4XUwy46ag2mRxfuIinOlwkZ304p/ZRT1rIu1VZws98KmmIfLI/a7XIDL1ecCuLGIU7EIwyKEdwVGuTR2dvgZfOx3V41LsTIyeFfiAjfxOpzKUJVhJF6NBN7FGKXKZOxk9CzmTOeHVs/IthxvI+o8p/Hmx7AqoXXIt7LKSbhVvEno2EHcy+pigB1tZH8hY/G1iflO4Z3NdKFiG/I4DxtYbWo/rxUa/iDO4gyPe7e8qo6zY/s5d0CQh3nc7eht9+ZQIeA/4mbM5d7A4e7hHd639IkaCzmducbfNOlrJ/PYUlwPGnIyc1joO9wSL/s0Rd676yv5ilHmjMZspn+FV0i37ALm1pzAZVbH16uZy/aJ4E0CzaSyOy7GeRjuqUJLGd7GUixQmxLFlYSbKmdTDMB5GIF+OFnjtG1YhzexFGvVkcTyI4HXQpiB7GN/nZCFNkhHEjIAVKAWlSjFPmxHIYpQhCJXl+tFIpFIJBKJRCKRSCQSiUQikUgkEolCVoKtJjETJ6Et0tEK6UhDJjKRdiypS5Pj1okPoA4AUIVKlOMgKlGFMlRgL3apcgHsBsw0nILOx/46oD3aoh1slL47hL3Yi93YiS3Yik+xFZtVlQAOAmkSTkUvZKMHeqI7gkwXuBdFKEARCrERxapWANvE2gKnYwDOwAD0ggspemuxEWuwFmvwvqoQwOZge+JcDMVgdHc2D0EdivAOlmG5KhTAjQfbC2MwAkPQLkJPj934L97EIlUggOsHm47BuAQ/MCjf6o52YjHmY4naL4D/H20WLsKVGI1kJIaOYAXmYZ7aHnvA7ICr8SOci0SsD1aHZXgJL6hdsQTM5hiN8bgMiZ6j5giW4lm8GNabdCiA2QcTcQ1aIz7ahzl4Um1MeMBsgpHIxUWIZ/Kh5cjHP4PNaBmg0czABOSiM+KtLZiGWcF9SREQYLbATbgXHSACgL14AvnBvEoFAJgtcQ/uRKZwPU4H8RgeVgcjDpjJuAGT0V541jP0mop8VRNRwFQYhwdi/8w98TP515irGDnA7I8nIEmHGqe3cYf60J9/7csMEjOZj/cEb6M1HGv4qL3imj63YI7GLOmYjTrrW9QSx1swMzkDCwWvkbrgdc6w3Y6ttmCeg7k4RUh5UgnGqpUOtmAq5uItwetZXbGceWziWAtma8zGxULHmubjejszXVYAsxdeRndHrKlGKUpRij0oRTmAGlTjaGYdoAwEoNAKOJZxJxUpAFqgLdoiC1nIQqoj91GES23s9LIAmBdiDsJK1bkLJShGCYqxDbtRilKv665MQxay0B4noxu6ohu6Iqz80GW4Ri0MHTAn4jEEmc+xFuuxFh/iExSjJIhVGaajK7rhVPTDGegT6AaFI/iJmhEqYE7ClEBu9TA24b2jf6o6vH6TScjGQAzEQJyOYKo2PKTuDetmFR/3PZlvBV/jPRzkXs5XNuUg/pILWeG7B38KpTYTFZ/w8aZquZpTOIrN4bjYjAM5iYtZ7aMbMwNH7GPrreZ85jByq8dM4yWc7Vt7nhb07TziC9p/8Tp/ptwD8yWT4/gya3xw58Egb+Mu6+Gv5A1MmD0fbMkbucq6R3cEFf6l/Nxi2DX8B0cl4mQUB3KG1aqLR/jDYMK2N5zYzHvZDgkstuOvuMViOcwz/A44i8WWgt3GXPfHyHbenTmB2yy5toV+fvbOZnzDSpi7+XOmIkZiKu/mbiveve7jnADvtxDgQd4X7ZGysXsteB8PWnDwN34FOMhCfaIFjPVuD3bkixYmgc72I7QMbvIY2A5eCRF4FXd4dLKQafbDetRjWdZZbC1wj3nZmk95LOP1kO2QTmOth3DKeYVg/dpsQpmnbtrmCxObeJqX2cheAvQbXO3NAg+uvmNxAYI5HgJ5RQqzNjCu9jLkusZWGCke5mL+QCUgG/BWcYqHwrd2Jop4t3EIeYKwEf5ONvb3Ljvt9zPDy/9O4DXS40nGL57eS1fzDsOLTxJwGi7/1tDl27yPn0vM9hEJNE2npxv5/LHHbyB4seGEpBRG13W6GRcaeT3G22VfNVrSaiPADLxuy08N3H7ZyyU7Guzd+JznCixDv4fxiMGcVoMZUBruwa82+GZhmlouqMyk/oPp2ic1g/kSDlcYbMJJE1Ae2nCGQTe9zPRi7Qw6jOsEkkfENxhsxjPb18bx2pdaxyaCyPOL6Xpt3681ewZ/Tzu6qapOEHl8DtfhYe2TRpv9lj7RnjhrJoAstOFk7e15RQYtmO3RTTOyvwebKDdh2/BhPKd5ynfqfwrX30UP0o7seYFjSXN1fxMYoA+4t+ZFdmCNkLGk1dCt89BTH3APzUss9S+hZgwHWm9pntJbH/ApmpdYJWAsSjcVWhd9wLq5ZdYLFYv6SPP4DvqAdZN4bxYqFqXrZnt9wLpzyruFikXpDrLS9QHrfv1XKVQsSjedW2r9b1D1iJpjYiXbY63Klv+yOJDgEsACWCSARQJYJIBFAlgkgEUCWACLBLBIAIsEsEgAiwSwqH5Z+xaBsqdSWrBIAIsEsEgAiwSwABYJYJEAFglgkQAWCWCRABbAIgEsEsAiASwSwCIBLBLAIgEsgEUCWCSAReHofylITlEAIaprAAAAJXRFWHRkYXRlOmNyZWF0ZQAyMDI0LTA4LTI4VDAyOjM5OjQ3KzAwOjAwuvUvCwAAACV0RVh0ZGF0ZTptb2RpZnkAMjAyNC0wOC0yOFQwMjozOTo0NyswMDowMMuol7cAAAAASUVORK5CYII=;" vertex="1" parent="1">
          <mxGeometry x="-40" y="251.37" width="60" height="60" as="geometry" />
        </mxCell>
        <mxCell id="D-ZUbSENo2Ke0Ngr0vWy-14" value="&lt;font style=&quot;font-size: 18px;&quot;&gt;&lt;b&gt;Godot&lt;/b&gt;&lt;/font&gt;" style="text;html=1;align=center;verticalAlign=middle;resizable=0;points=[];autosize=1;strokeColor=none;fillColor=none;" vertex="1" parent="1">
          <mxGeometry x="475" y="530" width="80" height="40" as="geometry" />
        </mxCell>
        <mxCell id="D-ZUbSENo2Ke0Ngr0vWy-20" value="" style="edgeStyle=orthogonalEdgeStyle;rounded=0;orthogonalLoop=1;jettySize=auto;html=1;" edge="1" parent="1" source="qm77CVOvTGz22B-kU-BN-11">
          <mxGeometry relative="1" as="geometry">
            <mxPoint x="210" y="460" as="targetPoint" />
          </mxGeometry>
        </mxCell>
        <mxCell id="D-ZUbSENo2Ke0Ngr0vWy-21" value="" style="edgeStyle=orthogonalEdgeStyle;rounded=0;orthogonalLoop=1;jettySize=auto;html=1;" edge="1" parent="1" source="qm77CVOvTGz22B-kU-BN-12">
          <mxGeometry relative="1" as="geometry">
            <mxPoint x="370" y="460" as="targetPoint" />
          </mxGeometry>
        </mxCell>
        <mxCell id="D-ZUbSENo2Ke0Ngr0vWy-22" value="" style="shape=image;verticalLabelPosition=bottom;labelBackgroundColor=default;verticalAlign=top;aspect=fixed;imageAspect=0;image=data:image/png,iVBORw0KGgoAAAANSUhEUgAAAPoAAAD6CAYAAACI7Fo9AAAABGdBTUEAALGPC/xhBQAAACBjSFJNAAB6JgAAgIQAAPoAAACA6AAAdTAAAOpgAAA6mAAAF3CculE8AAAABmJLR0QA/wD/AP+gvaeTAAAAB3RJTUUH6AcQAAIeHMPnIQAAVblJREFUeNrtfXecHMWZ9lPdEzavNu8qZ4QyCGXABBOEydHpjO+wje2zcfZ3Pvt83Nnn+xzOdzbOGfzhw2CCACOTRBTKKKIslFbSJm0Ok7re74/pmelQnWZndlerfn+/3p6K3dvdT72xqgCffPLJJ5988sknn3zyySeffPLJJ5988sknn3zyySeffPLJJ5988sknn3zyySeffPLJJ5988sknn3zyySeffPLJJ5988sknn3zyySeffPLJJ5988sknn3zyySeffPLJJ5988sknn3zyySeffPLJJ5988sknn3zyySeffPLJJ5988smns56Y1/qLFy++HsAqABOIqFOSpE2SJD2zYcOGo/7jHD7qvZ8WSn04X45iKotiLIugjg2gWkqggGIoBkdAIhAGUAIAKEQvGGeQkECI9SHAIyikNhRQMwroJELKERTzd9j9JTv9p3sOAX3RokXVjLEnAVycbszSzTlj7BlFUf5p69at+/zHmh9q+U+aXtSGmwLtWIkzOE8+g1rWijLpJEJsIE8XLSRgHI+ihrpRpbSiiu9DBV+Hmv6n2ddqD/lvZRQBff78+cWhUGgjgDkCkGspRkTfDwaD/7F+/foB//FmT63/QQ3BDnwk0IRV8nHMDhxFZeAU5BF1k2MTCiYn2jFReQcNsTUYE3qQfb2k2X97ZynQL7roou8C+KquIbNt+q4kSZ/cuHHji/4jdkenfkDVhafx2cAx3Bw6iOnBAyhCInc6V+6IrIsCAM6L9WNG/CAmxZ7E2P4H2BcntPtv9ywA+qJFi4KMsTYAZS5Bri1/TFGUT2/durXNf9Rmav93ukQ+gS8FDmBleAeqpYE8v8xcgtqd2E9YOHAG58XWYRy+z75Zuc5/6yMU6EuWLLmIc77ZLcgFdZqJ6L7Nmzc/6j9uoOnbtCxwAl8v2IH3FO5EqRFLbKhebL7AbdfPtFgUF0Y2Yyr7V3b/mLX+1zCygL6cc/5WliDPvHaipwOBwKfXr19/8pwD9/eplp3AD4q24ObCXShlfGi5NcsruLNoKxEwf6AbFw08gWldX2X3zWj1oTjMQJ83b15FOBxuZYzJ2YJcQ92MsW9u3LjxAQB8tD/c5m/RrdIB/HPZK7hA7oSUC+Dmvh0NHcBF7UoUwsU9hzA3/m12f8NDPiSHCegAcNFFF61ljF0+SJBr67yhKMrHt2zZsn+0PdAtv6Rg3VF8p2QD7inZigqWRxAPvj7lGdzkre6sSD9W9D+Kqd2fZPfNiPrwHGKgL1269HLO+docgTxFESL6lqIo39+6dWv8bH+Q3T+g6r5j+GXJa7ih4DiCuQJoPuoy1wCk/IHajiZFYri881lMZ59gnxl/xofpEAEdABYvXvw7AH+fDdAdyncQ0cc2bdq05Szl4OU1+/Cb6r/ilmCb2M/NcvQiWE5eKrmukxtwD6JORYLjqq5XMFe5ywf8EAF95cqVpbFY7A0AC3II8lQdhYgeCAQC31y3bl3P2fDgmr5PxYlT+F3533BbqCUJcDYkQB3MoECe62QH3lwNFGp5XSyBK7uex9TiD7MvVHT6sM0j0AFg+fLl4xKJxBsApuQQ5NrkCSL67MaNG1eP5Id29J/pp5XP4uOh0wiyPIM2d+WUVTlGUvm4aByrun/O/nPC53zo5hHoqgg/AcDLjLEZWejlbsufZIx9dqS54g79J320bC1+VLYzEzw0lMBlWfdLtlb37MV4Gh7gL+jqwhU997F/mu5b6fMFdABYunTpeCJ6BcD0PIA8RX2SJH1r3LhxP3jssceU4XxIh39CMwvW49mKVzHDygfOhhi8LAuRnXkCOg0h8LMokzlwRccBLI28j/3jdH9yTT6ArgH7qwCm5UBktyvfxhi796233to8HA9o/7/RD+qewOdCrQgMPUAH2xc5tCGPYnw2YM3zgFEVU3BD68PsOzPu9uGcB6CnxHjG2KsApuYJ5ClKENHPZFn+xlAZ6/Y9QBcVvY6nq9ajIV9gzX8+5SQfZ0P+ko5WXBK5hX1huh9Pn2ugA8CiRYsmyrL8KoApuQC5Q52TRHTfhg0bnsjnQ9lzP/284S/4RLBbH81m9cByAczc16Ws8lnWAMxXXQ99FCc4bm/9A/vWjHt8aOcY6ACwYsWKSYlE4lXG2OQ8glxb/mwgEPj066+/fiKXD2P972ly9Zt4sf5lse2BDRFoB9/ePcd2m5cfcOep/fL2U7is+1J277zDPsRzCPQU2BVFeQ3ApHyB3FCni4j+dfz48T/JhbHuwPfos2OexH8VNOmj2tgIA7xznpXhjTwMCuSCs9MIA7ghb2x/HLe0fol9ed4DPsxzPIV56dKlMwC8AmBcDvRyt3XeliTpE2+++ebWbO9797/QX8Y9ilulhP55sCEHaS76Its8K4ObuF4uwTwUg4UhT+bADa0vs/+a+V4f6DkmFeyvAhg7BCBPUQLAz0Kh0NdfffXVXrf3+tyjVDPlRWyqfxWT3YAun0DNVTsmAJgb7u7cjoYZ8NnUUdMr245jZWQJ+/i8Zh/oOaQlS5bMVK3xDXmywlvVOcIY+/Sbb775N6f6+x6gK4qew7Ml76Iwn6AeqsHDDUd2quOOq+cZlPm6zrSeftzUej2796JXfKDnlrPPZoy9AqB2iECeebVE/6soyhc2btwoHMG3/oj+cewj+FGoA3I+wJsLwOeCmzulzXlOnH4oAJ2LPi3qVEYVvP/0P7L7Fv3SB3oOafny5fPUCLqqPInsduWdjLH733zzTd0iF1u+Rz+e8L/4jBxN/u/DA8h8pJ04cyZPnLZrT3kG8xAOIAUJwoeOPMC+tPxzPtBzy9kXMcZeBlA+hCDX1nmTiD65bt26d3b+C/21fjWu04ax5hJ0IwPgYkAzB/3b62Aw9IDPYV8SB25tfJbdv+gGH+i5BfsyxtgLAEpzBXKPA0Hiovprmr9w8EvjCqgwa7AO1aDgrV8ytHUvvttxbnuuniuADtVAYFF2dctW9oN5F/lAzyEtW7ZsJYC/ASgZAiu8sLyKavD30fuwPH7ZsAEz92VeuLc3Tu6dqw8F4HM8cFxzcge+u+gCxnK2/O25DXQV7O9ljD0DoCCfIHeqs0hZgY9Fv4Baqs8KoNkCO9d92IPYyKHJVZm9REAWfvhcgDbXfXhod/mpfVh2eC67807FB3qOaPny5dcAWA0gnEe93LE8jALcGP8Abo1/GAE1GC7XgM1/PWex287QZl/PzUBAOQYj5XGAcKh3WfM+/ODC2aOVsw/Lzj7Lly+/BcCjgGHq5xCA3FhnEk3Dx+Jfwnl87qCBmUtgO7e3N5p5F+WdfnvV14cK0Dlsf3nTbva9i+b5QM8t2O8A8L+Aut7a0AbWGB4CwyX8atyd+AxKqdwj4PIFZHu9nLkSw71zafFvq+u5AXkuB4Ih6Pe6E2+x+1es9IGeW539o4yx3zLGpOECuZZKUIYP8ntxhXI9JPXRDAboXkHu/lrkCeTef1v1Qw5g9wo+rwNFvq+lpm86+Sz72oobfKDnkFauXPkxIvqV3b0MNbefRfNxj/JFTEiugekJoPn/bQahlR7uXqy3srhbDwJsUBw429/5HjDU3xIBd576Mbtv5ed8oOdWjP8cY+x/RgLIUyQjgKv4TXg/fRwFyXD4vAHb2wDirFc7c2Hn38wAGKdBIq/AG47rhBTChxs/x+657AEf6DmkFStWfAPAt/JtfPNaXokafIQ+i6V4z6CBPvi6WjAPBsAiru3UjlwZ6rIDWy6Anod2YyIJfKDxGvbBa9b6QM8t2L8N4OsjBeTaOhdgOf4en0c16oYA0KJysUHMSed2EsedgO80GJh19VyCcwSUT+jrx3WRqeyDy5p9oOcW7N8F8NXhip6zqxNmBbge78eN+BCCLJglYLMpt7Z6Mxu9PHvg2+VZifNDBcps+hnktRe3HWffWzHJB3qO72nFihU/YYx9Op8gH8xAMJFNwz+wL2Imm5M1oL0B31qHzkasFw8UbuoZr21nhc8ncPPZj0XfN5x8hn3hyht9oOce7L9gjH1iqIxvnsvBcLF8NT4kfRqlKLcFsNc8dyB30pvFFnI7C7q9D93KIOcG7IPhvCMkT+aED576HLv7qgd8oOeWpJUrVz4E4ENDDXIv1ylGKe4KfAKXS+8DA/PMxZ3rO4veXjm5vZXdbqAgW3GeDRrgdlx3MJw9R/VrBmK4vfU8dsuqo2cb0AMj+N54MBj8aDweLwBwm1uADrVI34ce/C7xX9ggrcXdwc9jHJvoanQlF3lakJNgcgkJ6qYARxrwkiGPTPUyZ21fpLkOM4CNdNyc0n+ZJSjdgC2PIM1FnTMFIWwLvQJ1k1Gfo+eQFi1aFCwoKHicMXZDLgGajzoyArhSvhF3BO9BISvyLKpbW9WtOLizAY25EMWt2zlzbnP9fAJ6sO1ydN2bT/+O3XvNPT7Qc0yXXXZZQSKReBrAVcOpl7vto0qqxQcCn8KSwHuyArqdyM5s3V/O4NT3Y6cKkCt9Xn92EuEHy6WHEvg2ZcUxjrtaV7LbrtvgAz33nL2ooWxaV2f8VGCkgtxY53x5Ie4Ofw5jpUkuuThcgtga8M66vBMnt8+3609U1zvoBtMm1wOITdvze1rY9y6t84GeY/rVd/b/afvDj37gUNkG9Mtdw2Z881pHZgFcEbwRd4TvQQEr9Ci2O1nZvQLf7UDgNAiIjHZuDXOUR+AP8fVubPkZu2fVP/pAzxH96S89c3b91593dne1SApL4HDZBgzI3UMqjg+2jwpWjTsKP4aLg1c7iO1OuradWO12EHB3th8ERHWtB4DcgjOXgB5En6WxBG5vnctuumn/SMeQfDYAfeWYVW+fPrS3HAyQIKE8VoeeUCsUKT6sxjcvfUTZAN5OrMN+ZRemBWehRCoHY0l0Zs6kSVM6P3OQ6be+D3I4a/vQnklwDW1bMtyf9my+hrGe/TXJ8n8b/DmXfQnOcUlCKHHVv738/37ic/RB0h9/fvxTm3/x2M/iSlR3szFpAEdKNyImDQy78c1rHwEEsarwTtxQ8EGEWYEHbi6OTPPKyd3p2W7Edvf1cs+Fh4PrC84SAbd23c3ef+1DPtCzJSL2/Q++2nN49/pi0VTOmNyPw8UbkJCiI8L45rV8jFSFO4o+hpUFV6UZUHaiuHfwugeuncg+nEAf7ECQw/PU/g72f99bOZKhJI3km3v6IfxqmXJJ8YSymSAGkEaMJQYEeRGm9i+BzIOeAToSRPpOfga/6fse/r3rMzio7FH/R0r/r/rfqf+f0s8hcyY1nzRp+7NV/+ZDdA/Ga2vvwXiPpBHVh/LIVizP4jhSWEF/fGZEh8aOWI7+5moqjb6AtlA7QkQcbzQ+hRM9+4U3PyB142jxRigsMWJdbU7lDAzLC96L95d8DGVSRU4MbGKfebYc395/bs3R7azwQ82x88jVq6JR3KBUsWuu6fM5ugfqaMXDgU6EuARAlnDxpFswuWIuuIDrFFAZJg0shuwionekcnsC4a3Ii/jKmbvxVP8fEZfiIAkgidSz9iDdGWo+DGlxnWSe01l/GPsnta712f7gHupYnd3U4Tm8Hrc/OoJhNCYe9Dm6B3riJaoqfgqnQ10Iat1KBMKGxr/i3c5dQtdUr9yGE4Vvg7Sbq40A41s2dcYGJ+IDZfdiXniRpSHOjrs7c2tverhdG3fcnBx867nm7vni9DZl5Yk4bkINu+qqLp+ju6DAUfwp0I0gMeg4OBjD8gnXY0bVhbrHnjpKlGqMjywwzCHLLUCHitufTpzAD9u/gf/puB+tymmN7ks6O4VWH9bqm876uUjP1ver7dNaN0/1SYZ7JE0/5EIvHoyuDJd5bvV5rwdPnrulIE70/z+fo7ug15+jmr7ncDrYq673rrlRbTTXlpPP48CZbcKFFbsCp3C6YFd6xtdIj55zqhNkIdxY+gGsKr0NASY76NNu9HYrjuzE2cV17PR1sQ6fD646XO0N5WXxBK4uqWXXX9IxopjnSAN6ZzN+He6HzCVopkhmHmVqtfWLJlwLJgewv3WzDuQEoEwZC4oRTod2Ay522Bnp3D5OMTze/SA2RV7HP1Teh8mhGYKW9iuiJqeian9nzqIPN1U/pTIxjS3BCFbS1SdNfW2eNlIuHyD0CMh8XbtXCuBM+68A3OFzdAt65RUK9K1Bb6A9uS8bg/0MLwZgx+nX8E7LW6Z/hgFoDxxFa2j/iLOwD6ZOQApgVdntuKn8LgRYAE6+byvO7xwIY6eHO9Xjtno7yzkocwHeXABf/V0Vi+La0hJ2+eUJX0cXc/P/ljoQ1uqQIis7NL/nj30PZtctN/E0AlCZmIzq+PRh17lzeR2FFDzb9Wd8p/n/4HSi0VYfhy72QO/j1urqej1f21avh4t0dLG+bqyv14fJUadGDnR0r30Nph7Xp9sDYbR2ftfn6FbW9m9RV6gRZUau7cTVAWBv8wbsOPWK8J9rDe5HR+DoiLWwZ9tHmBXg/VX/gPeUXW2ph9v5ud3Xs9PH9VxcbKm31t0Hx6FzxelzVU+TnhjrYl+/dYwPdAP99Rn6oPIcHhaJ7HYA1/7e17wB20++IhDjCc2BvegKnDgrjG9eyy8sXoZ76j6LQqlQADY7gLsFtvVgIK4rFtfF7rYcgstxAMjnACL4fW34w+ymax72RXcNDTTiG87hmPbHrPplWDD+cp1on/zNUKucj3I+ftSBHAC29W/Etxu/ipPx4xrRmAlcZ2QrdotEa62obg5rhc6lZudWI0Nd964x5NC1hsGHu3o5mrq/5nN0DT36OtVIT6NJjiQHHhHHdsvVGYBDrW9jy/HnTcY5AqEpsAN9cstZYXzz2keBVICP1H4SS8tWWk5cYRbuM3fiOdmWm0V10XWN+TxLTp1t+WAlBDft1N8FnOOKmnp23aWtw42xkeFea8L/sBgko0vN+BsW+WQon1Z3IZgkYfOxvxlMdAz1fAFOs23ol9pGvIXdax8RHsGvmv4H70YP4P11d6tbP1utJAvTh5lxwemnsxrdcqLNF0kzEJBwkUiR+427BJTX37kGbpb3EYOE/qbvAfh7H+gA+DG8L7VDuoiTk4f81OOeUrcQJDFsObpG94kzMNQrSbAPsPYRbWHPtvyljufQkmjCvePuQ4FUCO167WYga8GrX96ZDGG3Vss/k2GQYDpgQ5dPhnKYuPpgQOiB2w7JtQAc5Tf5OjqA5/9KS9lplHMLvXsw+VNrF2DZtBvBmKR7/AwyGpQLEOZlIwqguRxMdvVuw3eP/Rs6lDMCFxkT6ONiNxo04a0k0M/JoJ9DMNUWgmm0Irff0OjPcJHP7UNdveSfYhX00tOLz3mgd3bjfs6Ss6O4erj9TQ75XALG18zG4unXAxLT++Iho4FfhDCVjmhxfDCDyYnIUfzHkW+gMX7cMJstM/sNhplwZJiJpm0HU30S5sNUX9snT351unzjjDRuMbvMauaa23yeRT455Dv8Zhxo7/vmOW+M++N/UbfUhFI7I5uVIc6NYS51nGjfh40HV4MT15UrLIrT8mbEMXDWGd/c1imSi3Hf5C9jevEMk5vNjcFNn+amfCu3mygaLvObWxrpnEXswYroQ9y+gbrYFz885pwF+tMv0Hs61+LVlOTkBuiDqXe64xDWH3gCnBTdP5/AAJqkzUggeta72qzqhKUw7p18H+aXzbcAKmz93UwIZMAY7ioCuMgabx5kuINfPVuwuQVsHusxAq4cs5xddeOwbfgwrKJ7fze+RLDXuY1lPEsfOxjQUDkdK2bdBkkK6D6RAApRRxdCRvCsNL65qRPlUfz0yH9jR882nR4pCivW6t7QlYn0c7Meblzyy/geoOvffB9Dp59jcNNSbfVzTRkI6Or/yjmro0dbsUykf7vV0920M5bXVU7DivNvgyQHdB9gECWopQsgaVbAPptdbULvBhT8/MiPsb1nm0BnN+rT5nKrNkb9HBI3rVIj0tdT+ixZrj7DXaa91nOrl7tJu2x3JrLynBTdn32DKprX4gzimSXH7cRwt3q623Rzx7t4a9/j4Dyh6zeKdjRD5XpniRXeax8yk/Gp6Z/BgvIFlnq4SH/X6udG0dyL+O6c5i7E8VyJ8oNJe2gXBMeKiZXDtfrMsHH0rn58UVHAuIHjujnIgXOTiz5qq6bi4rl3QQ4EdSJmmFWiCnMdx8CzmdsrpOCXh3+Gvb17dVyWBFZ1GDi6aF04SlvTxVzbfZprODx3YY3nNuu+cffrvdly62wkBMGhKBKo6b5zTnRX2nGDVu826uFe0k66OyzS1WMmYsXs2yHLQV1+sVSHKjbbEuyjIbAmzuP46YEHcHzghEAPh2m+gFmPdqN3e01bTWEdLj2dC9I8+3S7css5B/RoO6Zno3e75djcBdcnCaiunIyV8+5CIBDSDQZFrAEVbMZZa3xz9Q54BD858COcSZyx1MHt88nkf/dyaKUBSuvr3MDxeZZ6ezZprxzfY7pjkIsjnG06+uoNVHfyZZwm7l0/16alHOnrDMCZrhNYt/tRJJSYLr+TH0IPHR1VrjZj+biicfjK3K+gMFDg4HIjk1tu8Pq41q9u5X/3oqfnUy/ng+tHYoTL6uvZyltbzgmOfqYf9yaQnX7ulas76fip31UVE7B83h0mMb5cnoYi1jCqXG1GOtl/Er899FsQ40J9nCz1civODtdWdzf6vX20Gveov2epY2el7xsOJBhiPcMywWVYgJ7owdVe9G9yGe/ObfRxbZpb+OarKybi4gXvT4rxyMzpqpRno0iqHVWuNmOdXe278LeTzzv6uckUE08CPd7sfyfTnHVRfLy1/u4uttyNz5u70NNhoZ+7vZ6Nnt4TWzUcmBuW2WuxbsxMTUk1TjkVpa3yIajDXYjrxlVlte0qKsZjxYK7sG7nn5FIxNKtK6Q5UPg2xKhrWEGez+usPvo0JpVNxOyK8wyip1k81k97JcuDGSa2mleLJcPKssY0V98T9yAuj+B63YlZ5wxHj3ehgkuAoh5OorYyCDHdi6ifEuMrKsZj+YI7IAeCme2IZBmVgfkIsKIRa2Ef7HUIhN/vexDdSrdDcIzZoAZb8V4r9sImQEd0HWQhhnsJlOGDPBSXddR63dHKcwLoD26kmfEIAl4BreQA5GQBbFF+VeVELFtwuy6CjkkhVAYvgJxcjXrE6dy5uE5PvAePHHzMEtD21nOyiZrjBgu73n9ulQ+dFd7Oqk0WALfLHyzYFe9l/bEgbX546qgHeiSK27lN/LrbuHZuEUttl+91XntN1eQk2CU5LYDJrACVoQsgseBZ5U/3cp23W7Zje9tOk//cys9upW9bzVMXrTFHAtsACbdd5h783tnkw2O+U/y7QF+P9t066nV0JYoVWv08dSgWermijkYi/RwW+jg86O9O+dXVU7B4/s3YtPNJECVrBlgxKoLz0RHfDgI/KyzsXq/zyP7HMLNqGooCBXAXigqBCwomvT61fJReP+fptqm0Xi/nuqWq3OnFg8nnHt1r3Nt1IsqKUc/REwOY5lUkV4bQ7SbKq6+bicULbgYkKc3JgnI5yoOjI3pORF3Rbjx9+DmhHi52t3GdW844YUUUXKNvp53cAl3gjFZPJ1v3Wa70b8qDjq5JDyRmjHqOHomimkv6UYYsrOKSBadlNu3sLO1Grk8CDp6y7huliPr683AhvQ9v734WpC5eEQ7UoJzNQldsH9zs8Xa2cfs3G9fjyqmXorqwAtAtHCnmXEkOrefombXkuIb7kWAvuIyVXb/uHDesR8dt78Ezd/VcB4O4tloei9aMeo4eHUApt9GPtfo796ifeynnHn30xIDxY+di4ZxVAMssS1UQqEdpaNqo8afr1Cyu4G+HXzbFI5jno8MwF50E68kZ9X3xOvDicjLMoc/Wv84d6mAQ5dzhGpry/kj5qObodxDJ0V8jJEnWnFZy4NRuuTkcpAG769iVT5gwH5CAbbufS3OkwuAEEAi9scOjLnpu06mtuHr6ZagprtT5ufXcTc/JSOhvN+/OktHTuaacm/okDaeHJmR2UFw1q3IvXN+mn0gsPKo5+tVvYyFxc+irMgQutmzdcaJFKMdPmI8F865Nc3YwoCg0AaXhqSMGoLkaTBSu4JVjb9r6zbXuM6MeLXbB8bRvXayv68NpYVhwknRTWZ2mqebrcOtaU0RTVhltfej80Su6K5hPBtHcSYzPZT1jGCw8htlyjWg5ccICXDBPFeNVnlMYnIji0NRBGehGIrffenIHEpTQLR1lDmU1u9vMobJO4jkE2zxxSzE+I/Jzl9NTuctpqdzwOw/1EnzhqBXde4CpimQf5qoVne3ca8yDIS0b8V7kfjP2O37ifJAE7Ni9BsSTLqCi0ARILIie6AGdge5sXqiiL9aHvW0HMbf+PM3TgM7oRi6MXFrDHLNpwzRuNuiMdBm3mzks1o2Rza1Y7qaeVX2XbVnf9FEL9ATHeC45A1DSABwuQGu00rutDw92AaaxJ0vqJ5oE+zyECgqxZdtqKEocACEcrgOTA+gZ2Ju00I+ChSo2N27DnLEzLT5oWOzSYrSmAxDGt+v1dWay8Ov1c9Lo6c6Ah8HijxwPDFlehw+MH7VAVxTUGoGuBagRqF4B7pZDGzm1qJ0e/CSUHlIvuLZ+Gi5Z+WFs2PwYIpEeAEAoWIUyNgfd/XvVYevsML4VFRVh3rx5mDp1KioqKgAABw4cwLrX10FhCmTGDB92xuCmdZnBsEUTORizzCDnhokvokktKZBzC7BlA9jBDhAu2ytK/agFupRABWfWYjcXcFutKC5ZiOZ27e0o1RfX9AnNq2GWrfSzughAaXktVq78EDZufAy9vWdAAIKBMRhTshA9/e9A4ZERbXyTZRnLly/H4sWLEQjoP4uFCxeitLQUJ3tOY0J5gw5o5mdiv4cbCYHPTf2JBg9zHtepBbkHq9s+s+hbkSpHLdATRMVcYq45rjEM1ngmj/3Yie/WYjy5lg4Ki8ux8uIPYtOWJ9FxphEEQJYLUVayAL39exFPdI9I41t5eTluueUW1NRYx3FMmzYN8Z4olB6CrLhdgUWvY5PB/cYEv5kuDFYbQKPVz41uOOO1cgTGfIEcBOKJ4lEL9AFSCrkUcCWGSxZiuRexPhug2+vtZAH8TF6goBDLV9yFnTufx4nju1SgBVFaPAd9A4cRjbWMKONbTU0N7rzzThQVFTnWDZaG0VrYj6ozYQQTzAYIIgMbbOahwwBuEu7AKpYGjD56nkegewG+/fUUihaOWqDHiELG8FerxSWszixHABf5Fc1qAOkEdLMKQYZ8NS1JWHDhKlTXjMfOHS9BUWJgTEJx8QwEAqXo638XOZDGBz0QVFRUuAZ5WioLcLTVRFDVHkIobvyQ7bY/tjq4rdVdfzbq7+Kz+J7yCXjvAwMhGh61QCdOwZSO7kWfttPTtWcvfXCLs13fpNPfyWQbMA4S4ybORWl5DbZufhp9fR3J+PiCOgQCRejtOwDOY8NmfAuFQrjllls8gTxtVJUIrVUxVHYGUBRlGhBqRWt3K9CIy402AEAfBw+HVWqcuKwX0OeiD5HoTsFRC3QmSZKRo2vPbtxtTmc34r/74cX4mzRiPUu72cQDBIMEjtKKWlxy+d9h+7Y1aDp1IGn4CpaitGwe+vsOIx7vHHLjG2MMq1atQlVVVfaDNiO0V8TBe2QUD7A0qDNPiuu4s9NyU6SzsttzdH2aW+jvyALwgz27HyiIS/KoBTrnCUlRdXQvovnQE7msowmIAYGr3MbI8eVwCBctuwmHD2zEvj1vgohDkoMoKZuF6MBp9Pcfz1iPh8D4tnDhQsycOTMnT6mjVEE8KGFMLyCBg4Mgqc9CUp+BZLsLqV4CEIM5lU4F2nDB4KCd2z4cQPfI0RlnoxbocYnIKWCGZaG3ez3b6+XWongmTcJ69pZ6wtRZi1FZOx7bt65BX087ACBc1IBAuBx93YfA+UDejW9FRUW49NJLc/peews4OAOq+gkgMhnUyKVubp/v5BPXW93FQTTZAzPXB5fiNGqBThJxkR/dGKTi5ZyVZKEBqNjAZpe2E+0B8SZ8GRpT1YBLr/w7HNj7Fg4f2AIinnTBVcxFpL8RkYEmS4kiF9x++fLlCIVCOX+3/WGASwzVfRxE7qzkzhsYakEp1uWZ5WAxeK6bvb7ufE2Cwkevjg6eUCRrfVzLed3o4zwHFnjyrB6QBfcm99eVAjh//iWoqZ+EXW+/iL7eTjAABcXjEQpXoq/3KJREX85BHgwGMXfu3Ly930gQaCqVUNuvQOYpkR22FnhrfZwLDGzmMwni4Z2ns+Yb7M59KGDKqAW6TIkESWbDWTbiOhwMb1JWgCcLXZ1MYr4W3M7SgJlbcQBV9RNw6TUfweF9m3Bo/yZwrkAKFaG0chai/U2I9DWBSMmZP33atGl54eY695vM0Fwso3aAI8jt/OsQiveppyOOgOMOnNsusGYogezcrwIpPmqBrlA8apy9RgLxHYMYCIxk149ebCeDtEAGfZwsdXCx9GLW7ZmoD0nGzHnL0TBxGt7Z9iraWk8k3XDF9QgVVmGg9yTikfacuNomTpw4NO9ZYmgpCqE6EkGYc1sdWaTPO4v7xkCcjHFOP1BwF7p5rgDtrX0cNDBqgR5PDPSldHQrfdvKICYCpxv923i2qis629sESNMPaQCd+WSt2xu5O6FkTDWWXX47mk8ewp4dryfFeSmIorJJ4EV1iPSeRDzWPSi9PTVJZUjAzoDWgjCqoxEU8ITJmMY08EbaB29cc44LgW0cKDJc3MpinxtwujcaOl9jIBHrG81A7+KSvR7uRsQW+c3dcH1Y1hfr3SLjkPW9MU07vT6vH3zM4r22ft2EaagdNwnHDu/AwT2bEYv0QwqGUVwxFYlYL6L9zYhHe9zbRTQDgSwPqesWnDG0FRSiKtaPQq5onokIoNwkohtnr4l98lyg76e4O7fQ070CO9sBwbrdQEIQQDFqrO79Xc1KaQZoTr50KyC70dfdGN4keDfUGcVvPWBJICno9Xh7nV+tL8mYct4FmDhtDo4d2olDe7cgFh1AIFyCQLgYSqwPkb4WJGI9nkT63t5eDDVxAG2hIlQmCCU8qtHERbo7oI18M4vzEII8A2zRyrHJAYR5ArhXYHsfANo7eMuoBXqs7fRJXp49oLMBvkgv11vtycHVRwI1ggz6OWm4PVkE/ZCjUS8zcCTrSqEAps6+EFNmzcepY/txeN/b6O48AzlchJLwZHAlhthAB2IDneBKzPH5HzlyBOedd96Qg50AtAeKQQqhhAZUCHLN4KgHgV5v5xrLup7rs/RwwDXiPzcNCMxk0HOjr+cC2Nb1jjf3Nw6pIXwoL1Y9ccrU4Owrr2epvcw0a7iJDm09L2XGcrf1MuuJac9O9ayupy0nTT3SlJPgemToj8AkCeUV1Zg6Yy4qq+vBuYK+vi4wxhAIF6OguBKBUBEYYyCuWK5q09LSgs7OTkyZMgWSNPT7aw5IIRBjKEBUfY7G/52nnxEYgTGAmfIyB0zlXHPmmnqptlbrusFwJod6XsrE1/jVC22/27T96Pahc20PpfhQXn7Ftas7XmacOXLzXJXb1yNBOQn945LKJSSh35zSura4faoPMkx1JUFbbTlPt8tcO3kkYhGcOn4Ip44fwpmWk+BcycyNT0QRj/YhEe8HT8ShJGLp7aQAoKqqCjfccAOqq6sxHFSKflRSl/r/cfUZJLm1pKZZ+qyoz0BRnwHXtcu0F5VzU7k7S7wX7u29nCQg9N5nLksk8NqoFN0TXV194RBXBmKyLLkUzwdbbq2f64FKBlFcMoCVYA7SkUz5ZNDLM9NYoXOz6fV7mNxwqXKmmRyiv7ZcEMakmbMxaeb5oEQcrU0n0Np0Al3trejuOAMpGEQBxmREV65AUeLJhTyIsOaFV7Fi2WJMmzppyIHegyKQBFRSOyQGg7gOV/72DHi0gTMApZftEgfWMFN5/oFtUk0KihOJBPpHrY4OoL9YikX7pMIiKz09V8AX6elOUXWS0K1nBGQGyNprMUv9PWNgsi4XBeCQyR+vlR60AwQLBVA3cTIaJk5K6q5E6O/pQqS/B9HIAOLRfoAIAVlCOBxC06kTOHJoP9Zt3IKm5hYsXXyBafmofFMvFYEYRxU7A4lZxcVzgd5utMwj7T9nGj+6UT8nFeTJeiKwWwE0W2Bbt4ugKApgYDQDfaAg0dvLWWGREeBWPmwY/OImqy4RJMZM5SL/ufgaZCp38u2b/fEkaEe6Jai110lPbBD43aGZBUcCv73RTad1WfFUH4yhuLwMJeWlGvWAp9WB8ZMmYdyEidiy4Q0cPnocrWfa8Z6Ll6FizNDuFNRHJWAMqGKtFkCHabVX/Zkc56WT4dmJ/eqDAbn3ut3RcC8wujn6gNLVfIaPqak1+sWN3JcE/nUhFyc1n5m5uIj76zkyCTmyMRxWMvnXxeqBiIOLpYTMYKAdKLghyIbr9Hsjlze67UiYL+lcfpn+GyaOx7X1t2Hbprdw/MhhrHnpZSy+YCFmTJs6pB9ELy8Bg4KqQKvJn241l93M3fVpM9fnaeu8fiWaXHFpb/lNHfG20c7R+9qOvnNCuXDu+U7iOvOST5S0OFsC2z4fFoY4kW6s18dJp6+LxH7Y6uUiPzsJpQ4zwEX6u9Y9xwX5Wu4PBAqCWHrpJagfPxbbNm3A+q1bcKr5NJZftDjvMfFa6oyX4Pm1b+Dtt7fiTEcv+gbiYAwoKgiirqoUS+dPwCWLJmNCXYmGSxvdaFwHZKO7zrjYJFRD3eCmzrrN1wN+17ttx4aao8tDDPRYLNq3oOy9H1qhdauRwc0m2kJJtJunOZ8l9+oS1NG6t4x5GbcZM7nLzK40snEJilxq5Lo9WbY13jM3XVfkqmQGNw9jXOjaq6gcg4lTp6K7swMnT53E8cZG1FRXo6gwv+sXxuNxvPjii/jNb36DzW/vRmt7L3r7Y4jFFURjCnr7Y2g+04ute07iyZfewcZdJ1BdVYTx9SWa/yGz1RHTuehS7jX9Vkgs7XrjBncbd7Ezql0+t8nX//78D/c9cfRE1xp43Wv7bHGvqfSP123jP+6NM8nJRSZZ/Da5wzRYkJJmXJu+SOOyMrvbJAuru7g9maz3Yjeb1jUGC5eZtj2HZOFWS7blBvcbV6/JTfX07bnhXkjj2krmH9y7Fzu3bAFxBfNnz8G88+fmZGkrIx06dAgPPvgg2traPLddPLcBX/2HJaivLtT8z4rBzaYI8rmpPlPrD048d8fJAQIPlnP5gmc+A+Dno1l0B4CuCgwMdEtFxXb6uDZfpJ/rxHR1M810BJrELPR1srHOG/V2stHLycLiridJ6JYjk96uNQpq9XVYGA9hGISM7jnJsOkBTwPaaDw01uOYPuc8jJ3YgE1vvIkde3bhTEc7Vi5ZjlAwd6L8xo0b8cc//hGKkt2U7M27T+Puf34O3/jUUly6qEFgnTeL6eZVZN3OcMsG8Nb1+qmiH0DXUINOHgagT7zwQx+7tC1cUWEvhrsQ10FpJOvbiUR47Y6fZCveW0fPkUlcNkazGcV1EqgKItGcdNFz+nuGoN9MPRKUM11Elvk+tbuSQiPWJuuECoKYMn0KmMzw7uFDePfYu6goH4PS4tJBv/w1a9bg0UcfBeeDW2AlnuB4ZeMJVFcVYObUco16YoyC44a0ohHh9dF01mK3tRjutd7x7uoTD/xhx5MADo52oNdMWr5yfu+4OdPsQOUGfFrlg0HTjvQ6t1UYrJs0uQi7tW5HHtuJwmrJEC4qBq4xzNb8OxMySsJ8Q1oCahtqMX7SeDSdOoV9B/Yinoijrrou6/DZtWvX4sknn8zZh0QA3tp2GrXVhZg5pUwTIqvV05EGuTEsVlvPHLJqFdbqJm3dbs3bbOMTzx14HkDjaAd6QefxdxvKb/vExaI9yq3ALkxLZiCzNLdPybHMloPruT2Z0jBIA1bGN3IwrJGt4c6czwxcn9mWm2Pome5/IUvjIDOUGfstLApjyswpiMdj2H9gH06cOobaqloUFngz1O3btw9/+MMfQJR7+9P6bU2YOa0ME8cWGYxzeiCaubzigqtnC3LBIUn40Ffeeaylre9NAB2jHei8r/n0vEWf/fql3ZBlO0CTyzQTlKU4PWkscWQDTlcDiw1wyYJ767mysZw0ADWK48xikg1ZgFdk9ScHrq8FOBcAXgWIzDB2Qj3qxtXjZOMJ7DmwG7Ikobqy1pWhLhKJ4Ic//CGi0WhePigiYOP2Flx1aQOKi2WBuM6FYGYG0Zq5Ese9iOv6ASEeHBv97L9tfRHAqwCiQwm64TDGdQKIlve3tZ0obGiw85O7SmuscpLmdyqfEYcCBiYxjcHN2jDHAJMBzThdlXQGNdIFuFi7NEgY9gpN4Iy5vjke3uiHN6cpbSrMhMuSpj9ukdYG8ZjXY+cAqhsqcc1tV2Hv9n3Ytn0rTreexPILLkFRof1+gc8//zx6enry+lH19MXxrQd24Ef3L4IsQWCQMwfSZNKKatRUXBjYsk83dVW0AYgA6B5q0EkYHmrt3b1xD2fAoA+JgTRpLWfnSHJL4gTipCsnQ31jOtMfCfvXp0l3T/ZtyEWflD7M90iCNOnuA7prMJ0EYpcm0/VTaZ4ulwIy5l50Pq659SpEMYBn1z6Bo42HLF/0wMAA1q5dOyQf1bZ32vHcqyc1Bk7ouCqlxWpmSBvVNisuPbhj3fbOdwC0Dgfg5GECem3L3p3ymA99+lLF8OHBpThtabST9KJzSl9PcUuSmYU6QIaAFi+WeWbSse1sAdCAUSSGM1MwDAmNb3qxnwR6Pbe12pvFf24IvhFb6RkjFBSFMW3WJBA4tm3fit7+LjRUj4Nk2Glo8+bN2LZt25B9WLsPdOHGaxoQCsNCPDeK74pBvFcsjHGitJO+nqlLUhA33bvtT51dkd0AjpwrHP1k+/69/RMx0MclQJEAUs+pg6uHVVqbl7CsQ+CpvhlBIQJXCFwiUx+ia3FhmtQ80uRnrpNJUzqtPxNI7cNYnmrHDdc09qfNJ4t70dfhunxS70FbToY+KH0vlE5r23CJgAAwZ/EsXHPHFejjHXj2tcfQ2HxM96K3b98+tHphVwyPPdeo3i9P33fmt6L+5urvZBnS5cnfyUNRD2NacVmH0mX9mNhz5FjnwFBb24dTRweAEwBQfvLgEWXigrl268cZA2SE8e7EQEQgUrk5AVwdVFNpiTSRbQmABTNrqlnr5cY4djJNVCFNEI0xqAYWNgCRXm5cdkqfZunADm1gjDhwxhwfn2rP1Ug6Z/2c0vo5M+2jltHxU/llVSW44qaLcfxwI7ZueA1HT9bjojkXoyBchMbGof+uH3v6BO66pR5FBcw07ZUMC0lmFp3UBtEoHvRvY2CMuN7ew8UpLn7yXBLdYwDmByP9kdh7b1lMWfrRyeBXTn/8TAMWZgAVS5ppGWdJ95wk9l9bLRdl5a+29o+TzTJW5KqduR6ZgnSs3HF6t5tVX6l6zLA0E9P53zNiPQn6I5RXlmDGnEnoj3Zj05a3oCQIb7z61pB/XNEYR1VlCLPPK9JZ383+c8UinxvmA3APoruoHsOXvtP5l937Th8H8Na5BHQAaDj9zo7wwi/88yWdLONmszpDkK8FO0ksDeS0YQUwBb1TJlYWLMHBZQBpvd3oTzdfmxizsSOQhd5vdxgBC9fAFLndzP5zCF1xzKSvc2F7pvt4RX59rrMPSDJQPbYSRaVBvLblDE7t3zcsH1dXTxw3rKrVuc1YWg83R8lBN9FFq797Bbn5HGUTou//5FvPADgE4MC5JLoDwFEAcypPHXz3yPg5swYzTVUrDEukcbshM1ddIr0fitR57IhTUuwPSUmAaa4D4fUzseVacd+8zFRmgQgumJ+uj+0ngftNL64z3dx5bbw7mdSCzBTaTL/6RS3I4I7juutnVlfVtk+J6xnxX9KpE5ntkmMxGXvbVyBSHQKwelg+rr37e9HYNIDxY0Pq/8wt5rFzwzx27TRWxZVY7pS//1hlyi1xZLjANpwcvRfAUvlMS0vifXcuVRw4uhuOn9S5M6+TGQNnmFlZptSsEYVAAYDJzMLKT6bgGKNlXsTF7fJF3J0sVo91jqazi4PnOk6ccisxHXcmk7XePM2VTME0Rmmisa0ab+yei66BciTiHC3bnkyOqsMhMjaEMWdOkeH/0nNuZuDeybRikgKc3W1W+RI++82eR/fsa+4G8DyA+HA8C2kYgd4HoHnX6r+cnsEHImThJ7fKh6GcWMZ6b/YJw+wrRqYfUjk8+jkozpPjsMZPzU0+b6bJI4Fv2+wjJ01dLphzr6/PLX3tqUFD9L8hfS+k+9+geRYZPzsz3Bcz3BMJ8kkYQ0CM0B8LYd3uWVj/znmIxIJgkgQmBxEsrhq2D2zn7h7N4MnTLkLt/6KNWUg+E6P6xV2Et1qDP0Ln9z/21I5TAE5jiBebGCmiOwC8C6CudN/bu/m8lRcZp6cSxNNWyUJsT05sSUbApUT11DRWIkBilGZASFvlKWOVJ0CKEZhCUAoZmOQkxmuFA9LdB4TtkuJDKopOUtcslTTiMddNVyWhGgCNhVx0Lb3Ybl5kEibxXbsqjT4/I65r81OiLoGI4eipWuw9PBGJhKxbo02SGMKVExDraRmWj2v3nl5wiQvEdrO4rt8sInOYl53yJsZv2F6wS/Ot41wF+iEAy9fe9/HnK97Ys2iAZ6Rtt/q5cZnmtCquJEdkGSq3VsGu1dfTejNLuuNASW1T4gDr46AQAy9QA3o095FxNRnDYEkDSPMce0mzKLF+bbqUPs6Ey09lgMlMWzuLgMsEgxATLIIJw4BA0C83BeE89sxiGK0dpdh/YAK6eos08M5cWApIKBk3Fz3Htg7Lx9XeHkdbRwzVVbIB0Nr15UgA+Ew4LOn0dTcA15SzYvrE5155Ub2dw+cy0BsBdJ/ZvxeXdDW3bCivq3MCtCvAs6Qszoi0y7AmOXbqdTKW4cqkGrZSIr1aX4pyIMHAChh4OANUgn7xCclgCCOL5aAB0WIXZqDC4DDI5HPNCqYwDQz6+HgyGO70BrTkMhNaKSJzJkO8u96vztHXF8LhdxvQ3FKpSk2a/5RlBI5AQEbphIU4jQeH7QNrbouhqiasWT02CVqejiPg6jLQimbhSMWwkKQC6zh4aw5/un1u08HDT/QjGdt+ajiBJmH4aR8AdP/6Jy+Qy/h2UXy6Tp+XAB5gluWpRStM+ibM/RMnoI8D3Rxc0evpZGFDIEG8uNP/wA32ADsdnqu6IhkW09CXw6ST2t1jKi6eq2eR7hqNBXDg4Dhs2HQ+mlsrdEOOaZQCIAcDKKyZjMKqycMH9OaYJvZf///q9XSmS8NUDps14sT6+S//0PWyeht7hhtk8ggAehTAwiPrXm9b8uWvrWiWA0ErvzlsF4c0xJhLydVh0wzeuIBiivFI+rj4lF+ODHIwcQKLcEBhoCBAMmzj4Ckdw0/CRSOsFqFgAgs3CYNzyOWUVTtLuZUfXu83j8YCOHa0Fvv3jkdXVzGINHKCPkopLVek8ogTErEoeo5vG5aPa+GiYpw3O2QxbVUR+NdFfnZFEAdPtn71iDJ34Kqb1z6u3saLqpfpnBXdoYo0XQDKS958abNyxfsutV0fTijOkyk/tQSgnKC0bs40diwCQES671QidZHklJOdp6LpKC2RSQmenGgbIlCxBATN01XJZFgzGtLsjHoiI57I8Oakz5vVAb3hzapeZu28gb4gmo5V4kxzORSeDDXWc2415ljzH6UGSELSOBIIBVA563I0b3oESmzojc7EkrHuZkMbORro9Aa5zFkstuv97S+8VrxBzewA0DTcIBsJQAeA3QBW/vVDt784p6l3ZSOTZWZnWTedmW5+edowJyVBSxyQSTWMqYY3CQCRuqGPanVPGc6QipdPAZQyVuu0oSkOULsCKQhQMcAK3QBWv1OICIj21n1rgDKLAQA6Axo3xK0b9XAOhYDeM8U4c6oUna0lOhdHepgiMvgaNHg3WOUkiSFcOgbVC65H8+ZHh/zDUigDdI7MirlJPZw0+rge0FDj3fVbM3NDHLw4zl2hCcpdH1mTEtt3jQSASSME6NsBEI9ElPN2bd1l508Xn8mUnxKrlZCk7wtmndikD0Nfz1hOWtE+AaCTgGYC9RAUxVknN85PN/rqRX5zY2yA/n/nJtVF387Yv1lfjUYCOH20Cu+8NQmHdzags61Uv2qPwYWofQZk0M21y0URGAKhAGovvBmBwrIh/7CCIQj85cb/nwn1cdLNxdfq72TrP9+0beb2SCSRQv+IAPpI4ejdSIYHTl37gduertt3fH4TmCTyp1MWZ4QYWJxUrk3plWiIpTi76npTv09GgMQzHzWHqiNr/PJpP3yKm3IC62FgPQQKE3ghgRUn9QHRbDdz+CwJLeDc0govkgZIyPWZhdSQiMroaytET1shBjoLQDypU6cnAhF0wE6ndNyb9KZ2bWFK0peAcGk56pffjca1Dwzph1VRI4NLXOP7txPbM2eedjlyYT1mYXXn1MBv/cBLz2hcat0+0M1cfWp7Y2PkPXt27D05d+EcO/easziv0ddDLAlKnnGnASmdXOuWS8XLs/SHnkxT2jVHmg2BJGZ233EAUkw1MXZwKGECFQKsiCCF7MV7K/3cWdxntmqApIldT/QEMNAeRl9bGPGeUDo6lRHTheJYbu1BEIBaY0lgGZ9lSjUCgEBQRtXc96J9z4vobxq6iS5jqqXkPHPdvm3cAuCZ5yTp3Gzc4HbjGnebHujbdsze3dS0P6b5puEDXU8HVctkySt33fpE1d7D57eqXN3eb06OQJdAiBVICEV4MjqNc1V/V10PpOrhpBnnmWanU1WvJ82EmTT3h3aTB67BQrI1iwIUAdDBkos1FDKgAEABAeGMsdppUBNNXLHi4OkAGEVCokdCrCeIeHcA0c4AKMEyUonW+5Aa2JgevkZQG3Vy066vZL3PUKgwhAnv/RwOPvJ58MTQrI1YN0EGJK0+TrrNG/T7sing4JBUQGcGAQUQRNcZDXOcavnNd7z8lHrpHgxzkMxIBToHsAXAZZ1Hjgxctn3LzjUXLF4ImGeIic76j04fuQYk3WGJEIMcV6dTQrwdcqp+arMXbpBWCRnzfepjJ4j2OydIpMadqxyTKQDrBXgPQJTksyzAwcKAFGKQQwQEOSADkkygoD4wJ8U30/8bZ0ACUBQJiEngAxL4AAOPyFD6GZSoDMYpA2xOQknIyMBJ66EwGtuYBYO3JXVwYQwl9ZNRv+wjOPXmr/P+QdU0BFBakQo0Jr3EovE+cMMMPUp/RfZnvfjOsWnLBdsaG5+KqN1v1tpvfaDr6W0AywGEX7ru2ienn26Zd1CSZa96uRUnjIcZiDgCcfXDpYyaKWk4tlYXlzRKqo6ja9zIzPQBqQMIM0fMQZUOmLoiDuIMiANKalUcCiCh2U8OEgcjnryX1KwzzoAEAymUkSy46kZMuQw11rJ0WCcT2C904jrpAm2N4cXmGESCm+37iGXqygEJdYtuRk/jdvQc3ZzXj2nmvAKd2M41YjfTbM0kWejpJNymWV8vxdUTygxl1fUvPK1eOjaSxPaRZHVPURTATgDobW+PT39+zRuKYZ04dwezLIsXMiiyvUWfCyLfdLO6JM1ZuC6c9WGKlJOM92CI3OIAV+0LSgJQYhKUBAMnTT3oF28U7UYr2tyXDIY2EnDpdB2LzTZMB8i80KaRu4QDmHjV5xEoGpPXj2nWBWFwiacP0qx953RAXVcO6hpzdmdICp59bsqrnZ39qSmo2zDE67afbUCHKr5zAFh94w0vzI9GBrJZBto6PJYhXiRZlDNdeKvlcsyw3hlbDx5mmGsGU9rqtxCEwhVvrNPivd6gW4GWDFs5k265aMrM+hEIv0Z+JxogrGx5hWOqMeGqL+si6nJNiy8vTk/JzfyP3OFMNq448RGNLRi45dZnU35zRf2G4QPdnjq1vsfi7333SdnRjy7mylZHIsAQL2TW7UE6ri4CvDY2nARSgDC+3sKXrsuT9MBLib6k48rWoCIXaS9ERk+aQP+GC4CblsVkDGOmL0b1wlvy8hFNmB5C3STZM2hJOF/d7izj+z8IP6W59M6R4lIb6UAHgHXqyIg3779/91VNTU1O3NPrkQgxJELu68MiDzacGQ5isSWgDBZuq/pWUoE5zVzdG1z0Zet68/rxSRLGXXwPCqun5vwDWnldCXL9zYiOU6euOvUv/7J+l4abvzUSATVSgd4FYEcqse366/9QR8Rz/ZLiBRKUADOJ2LAAsbncLMySg9iqO0jMmZ1EeRJwUbgCvA3YDffilst7kRFENeVwCBOv/RqkQO72X5cDDFfdWWZwOLoZzMnTmaie33zj9oc0l942Ern5SAY61JExAQCntm7tvuDFv633/sJEHzbTcaZ4EQPJYqC64ZiWB5HpQ3PNMV1wT7KRJkzAIv3/bjdLXiRZeBPRndBublVcOwW1S/4uZx/OiutKUVYlG4DJNGcY0iQYEJwHiBf+Nu+NrVsbU8COj1RuPtKB3gNgUyrx3DXX/XV5T1ePG9HYy8EZEC026sB2XJVZ1rMDI3nmtmQhyoulCDfc0+0gQR74ddoi7+qaDFZqft3iO1E8du6gPxrGJFz74focSn7ikKS+nmXdN1z37POaS29Ech1EH+hZ0Hpo5vF2333376uJyBl4zBvYJYZIqZTcsNGNPk5kwUGZKz3cja5MVno1c2SQFoOHC3+3y/u2rDOI1V6lQADjrvwimDS40I4Zy2dh2jzy/A14+p6ogj7+981/MDClDSMZSCMd6DEAr6USu59c3bTk+efW5eblGQ4ZiJZJIEm8KpsdB3VzbTfc3o0FHYb/xQ1ndmMsFN8feZIURFK+FxG/qGYyqubfmD03lwP4+DcSAi7sJn7AvX7+yguL1z35+B7tHPNXMEzLOI8WoANJV1t6va1nV13/3KUdbR1uAj7cn9U4KQmIlqhLRkN1l5nAxYRc16u478aIluGQImMhc7Sce5EprPrXiw4iiYXZDmBeqW7J34EFwll9KBffPg1jp0gCFYcJ9HRymCkgfm+dZ5adueHaJ57TXPYkgHdGOojOBqATgL9BEze895prfzWBJxRyAFw2nJ4HGCLlqv8V3txsdiAzAYDIFUDNi0gbajHYGslccXWy0b8tRH9yMYw4sXtRvUDRGFTOXuX5Iymtq8FHvyYNTqqzbKe25ROUW1bt1AbpcwAvnAUYOiuADgDNSE4SSCY2b+2a+cCPVocsrOSDPRQZGKiQwGWyFaddua1c6MN2Fn03AxkEKoJYcpA0EgKz0ectRpFsxHjnbkxUNc+j+M4kfPaH1QiEpTz6zMP4xX/XPL518+lugwGuyQd6bukNJNffAgC8+Pkvb7n67Y27czGCiz5yLjNExkhQghrRmbm08hN5Cr6BKx2aOYrLwkGDyEaUZi7EfJjmbNlJEPYjg7uahdVTEa6Y4PrDuOYTszDjwqBnMdysf1vr6zs3Ld3xz19+abvmsp1IBnbBB3puKY7k3lVpWr1o+Z8u7WhuF1m8bf3ncOmOk5JgTxQwR3A62wqYpbjvVty2d+uR66g1Z7cc86xje9LHXcS3F49f5KqraUun4Y7PBT0Y1LT6OXMYGJJHf+cFnVcsffzPhks/N9INcGcr0IHkclNvazO2r3zPz2cmIvF8+Us5AyJlDPFiKc2t06IyswMps+TM2UbhmfR0sueqlkE4LlQJ2HB/oavOozneyTZRUDnRsbeyhnp84edlmtl5zlzc64HE5PhVyzb9xHDpLQCOnU3AOduADgAvA2hNJTr27u8r+vS9v6vhCcqpu01blwHRUoZIuaSxxLsHqigQxvhBGvVss8ht1KuZrVFM5HcXcWunCS/kOCx4tau6o2BJrW15UVUdvv7nsQgWSt7fp1uQUyX/wj19vzm4/4x2neo2JN1p8IGeX0oguel2Ij28/vqhY+f/9/ceLzDpxsyDXu6kpwGJQoZINUvuAqP7fL1zDj2HdAaek/VcK4bCpq5bQOrciKY4eObSnWceZNwa64gnLPsKlVXhy3+ajLIa2SWYtQMqudPPKYSHflzx5CMPbTuhubRi/PZ8oOeXWgG8rs1Y++Wvv71izeo3mEs93f3HYbDIBxn6a+VkjDzMSx87P26mM9aZuTCzBbQdIM0GNDueyoRuPjehs8ZBysmYSC5Br7XVKVHxxiYFFfX48iPno24ibPRvqzRM+rdY1Jex8flZb3zt868Yd4d8BUDL2QiYsxXoQNK1oVtO9Pn33brmhh3r38lt1BwTx8dXSohUJA12zpydOUZjQchdRAY0ZhoU3Bj2YBiMKAs92q3wne3cdy31N5m3KysZOx1feXwW6qfwQb9Du+PYznnv3LFq9RrD5Q9A4+L1gT609FdVZ0rT4wtXPnzdu7uPOr9k5sIgJ66f+ogTxRL66iUohSwDWNKDigycl4QGLuaSm1sDWwR+/UYKelXD3rbALAeOrDVv8qBCMKD/tH7fg6pZi/GVx6egqkExB7Jk8Q6t8psPLXr3sgWPP2y4ozMAnj2bgXK2Az0G4AkY1udaPW3+r65qPHhSFG/uZChznuZq4O4yMFDDEK1i6UkxToEnbmazaTdbclpmyo4bO86uY95ha6tveyazvt97cieiHapqzGRMvfI6fOXRcpSMiXkEtkg/tzoDPSdnn1ox439/4+Yb84E+9HRG5ey67+Wvk87/2aUtR1vE+plbF5t7MTBWwtA/FkgUMxN3tFo0wsuKNbYKraVR0Tm4ReTrF0ketsY3F2zaaXkpnQFma9JlHSytxRX/527c+5MY5KACN4EtIgCb1xkwv8NIy+zWxRP/8lPBbT9tlBp9oA8f7Qfwqi6Hc1o7buaPr2w50pK9DsfcxUCraS4zDNQyDIyVoIQF4j6z07/NC0VAqJc7T6axEvGd9Hh7sLuZOGO9oIVb6j21Gz1HN6ByztW4+/c34qq7G6EPcMnlO0yWR1rmNl807i8/4tz0L61FcmMR+EAfObQBgM5KyhMJ/lzDjB9d1ri/cXDz1pmNmG8GaqIAGBjPEKkDKGAv+tsZsqxCTt2Iwm4CYFys9YjM7H83HNttpL9FH0ocbVsewYKPfgmffLASU+acdHSXeXmHorzek+efurDu4R8lEty42cJ2aBY+OduJYXQRA3AbgBnGglXv7rj31SlzJ6U2d5A0u3N4P6e2aCbnNBFCHRzhDgamECRO6Q0ZkqsLpzZrIDBiyd1COGXyVbxk0uqmDZxrNoWkzMaPSG0CSen93Zm637t2f/hUH9pRhWktiGkjhDrcEAOlr5H5rd3cQr/cDFPzVTsDT+aRZgtWSqcB4gw8chrzLtmLGQt3QYKS3v9M0my0oE8rjmfrsgT6j04/vnLKw78QfEeHAfwFI2inFZ+jmxnLagAnjAVrpi745XW71++RLGe8sUHo6TZpBsQqGfqmEKI1gBKAZhgwW96d9HNy/Rjs9XOx2C3g8oyZDIvOVnjmwWDHwACMnXYY19zzPKYtfEenU1tLUG70c6t3KKFp53nvWID8JICnRhPIAUDG6COu6uyTAZRqC/b+/Hc7r1k8Uz49Y/bkBGOaz8xuM0OncudzavsmKiQoFQBCAIsRJMVYN8U9tVc275yaqmO6hhY8RLbiG1MNeplNlphQsybdnWgHJhGMxXdMZLzLzO4S5TWtWHD5Wkydtx2BYCy9nxlTcWbeRVY0HENT3+5MkEjGvpfq1t228k+PC76dZgCPnO0W9nMF6EAyVHE/gOkAirQFB/70xOElFQVd/UuWzoowmZm3H86cxWVO+Q71GEAFhEQlktspE0GKJ8VcxphuW2cr8DEb1s4M5czCNGbsg5mGigznZCZwMwt+Ld7zVXQnY+pbcN7y9Zi5ZCMKS3oMUf9wSJOHXWUzQA+hkD/3U/mp+z64+lWRsR/AnwBERiMgRivQgWQ88gER2I/9be2p8xqPvFt73Xvnt8ph2cRRbfYatwayFfe3rk8hglJOSFRyUIggJQAWN+9kagIqpQYBEg4IZqAzcV/EhDxbD2LD/8TstlO1s7ond3isHHca512yHpMX7ERReZcNYGEDYDhMLuUmkAfj1fEffur47x/49huiZZ/OAPhfAP2jFQwMo5+KALwfQJ2xoOb8acUXrnvx0+srJlboDWoQGNjsDHOitFO++CwNAKEOBqmTQY5qDWka4xxPGvmgGudASG7RrNn9lXHKbPesGudS7SltjFNFWtVwxjS7yKY3mNMY71IiePp3auP4dJ+qAS5t0Esa20JFA6ie3Ij6mQdRWNKrMaxxgWEt9ZsMBjRyML4RJCSE52BnQ+ffLXvmp4f3t/bZiOv9oxkE5wLQAaAAwJ0AxokKb9n56odfm7diNlc5m72F3R3QswG58SxHALmLQe5gkHqZbovklJUe4Gmrvdbqnt5GWWuFJ/2GpymgE7EMuA3lOkueySqvBzrUfggMwYIIxkxsQtXEkyipaVMBzC1Azi2A6wboWmDrywPg6H+nft+qub95yOK7OA3gzwAGRjsA5HME6AkAe1WgjzEW7vv5H3ZeXl3Yg4sunNHFghKzFN8Hq6e7Kc9clwIEKuHg1Qp4vQIqVYAQT4qncSnN0ZnGqsAMIjWDxSJUREKR3qjDk8DQJxTwZQXF1Z0YM+U06ucfwrgL96F8bAtCxQMW/yNZiOu50c+DShF/87fxp/9h1SPPWXwTRwE8OhoNb+cyR9cObKsAzBMVTlyyoHzO83/5+IYxkyrdie+URzGe25RzSByQBhhYLyD1M7A+CeiVwRIZjp4Cu0Qp0VoFd8rHrl0GVuhn14vylLINMIJcFEW4tB8FFT0oqu5EYWU3ZCmhuXcvHNwpX7Hh/Hr/uoQECjprOz5z9bO/2rW5scviO9gJYA1GmQvNB7qZLgFwsVXh7a89ftPmS1Yt6WUyGxzgvQFcD3LYgJ1bpDlYnIFFACkqJe3HERksAiAhATGAKRIozoA4AxIs42aTk30QGGSZgwUTkEMJsFACgUACckECwZJ+hEoGECqJgDGjSG0EONkAOVf6uV4fDyNALW+EN3/w0t89ZfPu30RyodFzis5VoEPl6qus1Jd5t18/buzvHvjI1tKxpc76egqoGLQxzj2woQe4FfAHdVYE+VxY7p6Le+Huig3w9Xp5aX9V748+sf6hpx7e3Gijvq0BsPtc/NjPZaADQD2AWwGUW1X4wJo/rNpx9S0r26Sw5M5IZxcWmw/AW6W54WwPaHMbK3DbpQd7VhwGAHP4awGXqPH1wKZPXP6r1TbvuQfJqaanztUP/VwHOgAUArgJwBSrCtOuWFl54SO/uPutmmk1Ctgg9XS7cieR3QjcTDr3XN0ojpMBgGQDWCtxnrsQ593p5zIIxS0lLf96x+qHNr5+pN3m/R5HMqS171z+yGUf50gA2AMgAGC8qELHkRMDe77/8w1LA30tNYvnT28NFge9W9yZQ5hsKnBFe7a3ytunrc65ridqZxfwYv5/zOGqxqg2bZpQEi0dWPv9xsc/u+rB1SePdVq5xgjJ3XifRXLxiHOafI6up0kAboAhRt5IH3rhj9cfvOLapSflIjnFme3FdeRZP4cNZ6ZB6ONuRHclB2K84kKMV1CqyMrJl3rXf/ra3z7n8B77VIC/63/SPtCtqADANQBm21UqGVMW/MBff339zmWXX3hKKpKzE9/zpZ97E9W9gztferpYTC/kAa7swb7PX/Xrx1qaOp383vtVo9uA/yn7QHdD8wFcqQLfkirH1xbc8Oxvbt81b/msM1KB5F1Pd6OXiwHtHtw0CG5u5z5zA2ASWM7dAb2UGKd90qEvXvfbR04dbXGabDKA5OYeu/xP1we6VyoGcAWAuU4Vx9TXhm956mc3vLto2fzjgbKAGwOcHuTI0n9uJbYjS0OcGw6vWAwEiusBQOwnT56LEmEF+wYOfOPm3z5+7HCrmxj0Q0hurd3jf7I+0AdDM1RxvtSpYiAUkO969AdXdl593ZIDhbVFGJQYn0XATNYAdwN4J785ZS2uy+CoisqR5tc7tn715p8/H+mPuNkNpRvJjTcP+Z+oD/RcURDAMvUIuGlw3TfunV3/qQ9fvqthRkM3C0m508/t/OZO/vQUR7Uus3arUQ4BnjyHCVTenmjf8JudLz/wT3/Z7sFTsgXJbYtj/qfpAz0fVArgMjfifIoaZkwouunB76zqWHjh7D2FtYUcEOjpudLPKU9RcbnQ09VBhjhqI9Tfve3Mnu98+KE1p440eTGcHQLwAoAu/1P0gT4UNB7AewBM9NJo4fUX1y35909d0T573vSD4bpCuDbKWZXnQ2x3J75bG9zMA4AMjoooi9ChriOPfvOvL73yxIbTHp/3MQCvIbmmm08+0M8OwAPAxR+4dvyyL3xwZc+smVP3lDaU9CHIvIvtQ+9Hdyu+B4lozEC8Tznccfyl/37xtWd+/8aJLJ7vSSQ31Dzqf2o+0EcCTVX190nZNK6dWFtw4w+/uLJ0+YJZzdUN1cdDY8JxSDn1ow+Omzung+CojsWiBa19bSfeenfvL774yLq2xrZs53sfRXKt/iP+p+UDfSRSHYAlSAbcZL2c9qQ5k4qv+ZePLi5ZPH/mQE1NdUvxmMJWqUgGkIVenks/eioNjFFiSvlAtF9u7Wo9tv7ooT9/+8nNJ/aeGExMOSG5pvo6nMMTUHygn11UDuACJKfDluSiw7mXza1c/vEb542ZN2MCq6ms6i8tKekIFYU7giVyAhLLnUEuA2yZOJUrMaU0FokU9PT3Ki2d7Sd3HD/+4q9f2b3n9d3tOXpWvUgGuryNpMvMJx/oZ+UznqSCfibytGnG0uuX1p33nvkNY6bVVhU0VFfIZSVFoaJwAQ+HgxRgQS7LcoSFWFBiUhnrQ0KJc5BEXIESiscSLJaIJfr7o9Gugb6Bps6OMwdPt+95Y/+pzc+ub87TcyHVwLYNydV6uf+p+EAfLVQKYBaA82GxUOU5QI1Irt+3T+XkPvlAH9VUpgJ+hgp6aZT+nxxJy/kBFdy+aO4D/ZylAiS3kJqqHqVn+f/Tg+QU0cNIWs+j/iv2ge6TmUqQ9M9PUM91I/xddaoi+Qn13Oa/Qh/oPnmnMIAa9ahVz1UwbDU1BNSP5PZFLerRqh5+vLkPdJ/ySCEk3Xhj1HMpkmvgFaqDQCGSy4Wl5tQHkJmQk1APILkwtKICeUBz9CAZU96pHnH/kfvkk08++eSTTz755JNPPvnkk08++eSTTz755JNPPvnkk08++eSTTz755JNPPvnkk08++eSTTz755JNPPvnkk08++eSTTz755JNPPvnkk08++eSTTz755JNPPvnkk08++eSTTz755JNH+v8pTn6gc7QZ8AAAACV0RVh0ZGF0ZTpjcmVhdGUAMjAyNC0wNy0xNlQwMDowMjozMCswMDowMEROC8AAAAAldEVYdGRhdGU6bW9kaWZ5ADIwMjQtMDctMTZUMDA6MDI6MzArMDA6MDA1E7N8AAAAAElFTkSuQmCC;" vertex="1" parent="1">
          <mxGeometry x="330" y="460" width="80" height="80" as="geometry" />
        </mxCell>
        <mxCell id="D-ZUbSENo2Ke0Ngr0vWy-23" value="" style="shape=image;verticalLabelPosition=bottom;labelBackgroundColor=default;verticalAlign=top;aspect=fixed;imageAspect=0;image=data:image/png,iVBORw0KGgoAAAANSUhEUgAAAPAAAADwCAYAAAA+VemSAAAABGdBTUEAALGPC/xhBQAAACBjSFJNAAB6JgAAgIQAAPoAAACA6AAAdTAAAOpgAAA6mAAAF3CculE8AAAABmJLR0QA/wD/AP+gvaeTAAAAB3RJTUUH6AcPFRwZRHFrDwAANplJREFUeNrtnXmcXFWZ97/n3qreu7P2ks5CAgkIYUu6EwKE1UEUVBYRiICiA446oo7vjCyOgqMi7oqM8uLo4IaCLyCiiBsBjCxJJxAWIUYISbo73Z1Aku7qraruPe8ft6q7lrvV0kvVPb/PJ58k3bdO3Xvu8zu/53nOc84BBQUFBQUFBQUFBQUFBQUFBQUFBQUFBQUFBQUFBQUFBQUFBQUFBQUFBQUFBQUFBQWFSYRQXVBq2F4JB5tBmw/GTGCG9Uck/60lLpwBMvFvYQIHEz9P/FvsB7Pf+rd+AOKdMKsPlo2qPlYEVsgbUkDHEtAOBw4Dc6n1tzgUaAbmTvAN7AN6QLwKvDL+J74NVr8GQqp3pAisAEBHGLTjwFwN8jjgGBBHA/XT9IYHQL4A2nMgt4LYCP1b4Yy4epeKwAHAhnqoOhXkaSDWAO1AdYk/1BCwGcSTYD4GNY/D8oh614rA5eAOa7BpDWhvBc4ETgBCZf7QMWAj8GfQHoYVTydicAVF4FLAE9VQ+U8g3wm8E2gKeIf0Ag+C+DWM/glOGlY2ogg8zXCPDoeeCPIKEJcCDapPbDEM/AbET0A+DO0x1SWKwFOITUeDuBpYBzSq/sgJfcDPQbsDVv5NdYci8GS6yJcAV4M8SfVHUfBXkHdA7JfKxVYEniBsbYLoR0D8KxM/FxtU7AV+CKHvwPFdqjsUgYvhJh8B2qdAXgZUqv6YFIwCPwXjK3DC31V3KALngaeXgHYdiA9Q/lM/0xUmcC/Iz8Cqbao7FIF94JnFEP88iHWArvpjWsAAcRdon4UVr6nuUAS2wXOzIHot8HGgSvXHtEQUuB30G2HFAdUdisAk5nA/AtwEzFb9URJ4HcSN8MrtcLGhCBxYbFwF2u3AyhK78SGgC+gBuRdrqeBB0A6AHElcc3C8hFFqWEsNAVnN2BJEZoBoBFqA+UBNaXWD7AD9w7CyQxE4UNhQD1W3AB9ifP3sdMNB4HkQL2It6fuH9ffwDlg7MDFf+VQDhBcDhwFLraWM4ijgmPEBYFrGx9+DquuDuIgigATuOAP4IbB4Gt3UAMiN1ooesRHEc7By5/Tqt2cWQ/xY0FaDPBFYxfRa9rgD5Adg1aOKwOVJ3BoQXwb5r9PguePAk8DvrJrgHc+VXix3jw5LjgVxJog3gzwVqJ3imzKB2yB6XVAqugJC4I3LQbsbWD6FN7EHRIKw+h/LL4v6YgUMnQraeYmVWIum8GZeAO2SINRYB4DAm98P8jamJkGzF7jLWn2zckuwtqPZ3AbyvUzdQo9BEB+FtjsVgUsS2yuh/7tWXDSpiAIPgbwTxENqydyLFTB8DnAlcA4QnmQT/yE0fKRcN+srUwJ3zAN5L4gTJ9dt4/uW4rbvQ8EGWxrBfA/wQeCoSTTzJ8B4F6zuUQQuDdftAax5zUkyDm6Blb9ROzb6hRTQ8Q4Q1wNrJulLO4HzoH2LIvD0HeHfDOZ9TM6OGH+1stptDypCFuQtrQWuBc6dBHscBHERtD2sCDz9lPdykD+c4BhLYq2OuRlWPaPIV1QirwRxA8gLJ9guo8D7of0uReDp8/I/BnxrYp9HPAbGf8DqTYpsE4lNq0F8DThlYgdi+TFYdZsi8NQr7ydAfmMCn2UHyH+DVQ8ock3qoHw+8E0mrmJOAp+A9ltLuZe00n7Jm/4N5DcniLwx4FaoPlaRdyrQ/iuIHgXyc1g7dEyEeH0bOq5TCjw1I/SHge9OUOMbQXu/2i1xumDjctD/F+SqiVFi8SFou0Mp8OQp73nAdyZIdb8MrFXknU5Y/SL0nwRcNwFqLEB+DzZdpBR4csh7OoiHKf4Gc38H8xJY/awizLR+/ytA3A0sK3LDI2C+FVY/phR4wvD04SDuKz55xb2gn6DIWwpY9QyMtAE/K3LDVaDdD88sK6XeKCEFfmYmGE8BRxSxURP4D2j/hiJGKaLjGuAbFHfX0JcgvgbW9CsFLhru0SH+8yKTd9AqGlDkLV20fwfE2cDrRWz0SAj9LLENkSJwcbDkMyDeWsQGu4FT1fRQOaDtkcRZy68UsdG3Q8f1yoUuCjafAnI9xduj+XnrBbXvUsZfTniqGUK/BdqK1GAcOAPaNygC542n54D+LLCgSI/7GFS9XZ0gX67YUA+VvwFxapEa3AXRFXDSG8qFzgv6d4tHXh6B0LmKvOWMtQNQcY41UBcFi6BiWtdLT2MF3nyhtSi/KFifcJuHlJEHAVtrIfpQ8ZRYngerfq0I7BvPzATjBYqzKP850E9TR3EELiZugNB6irNp/x6oWA7H7lcutC8YXy0SeV+B+FsUeYOINf1gngu8WoTG5kH0ZqXAvrBpBYiOIgwuA2CeaNXRKgQXHW8CnqLwkyVMEKuhbbNSYHd8qwj3ZYJ4jyKvArS/DOISwCicK/Lb1n5eisBO6ntRcRIP4jPQ9htlvAoW2n4P/FcRGjoZtlygCGwLqYH4bBEaWg+vfFkZrUIGib8A4k9FsNP/mk5lltOIwJsvxToFrxD0QXxd0M+MVbD1yszESRGF7tm9HLa8WxE4DffoQBHUV1wDa3qVsSo4xMN7gI8XQYU/O11UeJoQeMn5FL7S6AFou0cZqYIHie8CeV+BjRwFHW9XBB5XzkJHxQhoH1HGqeAP4Y8Bg1Nss+VC4E0rKHwP4JthZbcyTAV/OL4LuKXARs6EzccqAiMKVc7XYOCbyigVcsPA14CdBcbCHw44gddXAQXuBig/D2eMKINUyA1njID4YoGNXGIdYxtYAjecB8wsoIF/QOTHyhgV8hz876SwWulZ0H9ugAksryiwgS/DGXFliAr5oT0GfLVAG37vlAagU/fVTzVAaC9QkWcD+yC6CE4aVoaokD86aoBdwJw8GxiFkUZrM4FAKbB+VgHkBeQdirwKRVDhIeB/CmigEirPDKALLQqcCDd/pIxPoUhi8gOs0wqnyJZLjsBSAIVsE/tXOOHvyvAUioMV24GnC2jgnIAR+NmlQEsBDdyljE6hyKJSyFEtrdBxWIAIbK4tpKch/mtlcApFDukKtCl5cpBc6EIedius6VQGZ4/+7uZvDHQ1Dw90tfyr6o1c0L4La9P/fKl0UoAITHsBI+UflLHZY7B7XpuQfAKoAvmdgc6Wi1Sv5ITfFyBKqwJC4Ht0Cls6uEHZmUNgYppXMD63LxDy9oGe5ibVM77F4YkCPvymqVgjPAUEXnaopRD5xr/iKWVojm8zczpjDqb43KQHSBLR39183UBn8xelLKUzqEN/LeDDNbDxkAAQ2HxTAR/eBSv3Kqbaxb6tc5EcasOmqwb2tBw1mfcS6W65SUi+hOCGwT3Nl5ZOLx7XBxSQX9GPCgCB5aEFuDh/U1R1MB3DXI19aWxImHLSNvkb2NOyHOQNKWr8zyXWlS8VYNtLAkDgguZ/X1ZUdTAdTV7kEne8vb+raXKmOUz5GSCU8pNT+/oa60qoKwsRiXlBIHBrAWb6mqKqTa90t9ZIj3XVAu2Wib6PhKueuWNjqDoeWllCvblTEXjCFFj0KLpmY5D4hUB9thqSUuEr10a6m94yoaYvzU/Z25R5fAl15x5FYPfXXD9FnTstEelqOmugu/mRge7m9Qd2NR2WH3GE7ZpULWKAlKnXfUVK9Il4jgM7F80SUlxs78KLRSWkwAXYmKgPAIFFVf6fNQbKibwDXc3XSMTDSM5Acrqui4fli8tzWmI51Dl/AfBm254+aCDSt7g/LtLVdNVEPIseHr0CqLZ3381DSuet6IUcAF8dBBe6AAJrZbP3VaSreR3w7Yx3sDQy8/Wrc2knrsUvd3qP2kEDzIxVckJ8fv+OmTOLL1x80Dn+LiUFFsNTY9ulQ+ACNgGT0bJQ3j0ty6W1iDxr2keI3LYZEpL3Of5uwLQ7k69Rr6z4VjGf5+DultXAcmcXnxIisDGiCDxh3xkyS528cvvSSgz5C6DGwdhXD3e3LsqBOI6FMVq/AYa0Ib1430BXy0eL9kKFXOdxSbPcsbiqNN5QQTYWhFLKYCNSE7kBwdFuoho342/z9fJ0rnRV54MGwtEc5a2D3fPaCh6QJDoal3g5CoOVQ+9Sb18RuLTJu7v5GJDX+XgtntM9fX2NdUh5mWsrAwbEpbP3Lc0bC32mwe7mM5De0ydSihuUBSgCl67rLNHR+T52G/llurlCnuk13VMV19YBDY7sjEnEsJmdxEq9J3j7YHdrQUUWUgi/ynqUNYApKAKXIAb3NH9USk6w+52+N2tr65mRnhbXXUuE5F9cf99vZa+Ee0QnTGkUdKyrQPoeAExNnKMsocgRe+k/wtOHg/5RYA/IZyGyfrodtTK0e858Q/J5x1G0J4bREs5U5XXAY3bXH9zdfALQ5uk+g5sLncQ7D+5uWT1jYc/GPLwKbbDbJvts2suDQK6Z2jexvgrqzgBxPDAPjNtKfXPEMlBgrRW4BrgZxENQ3webfw6bTp8ud2iI8LexK3VMKvCemJ20XeRU1KFpeMaT4qCRTiaXSzVNfjefCq3+zsbDJNTaDR5iyLCjfPvUvIFNp1s2Ud9n2Qg3WzajtZa89U/eV22thY7PUdBiBl+oB3kpiPXQ8TB0TGncNbi75RyEdI0Ttf0GYjSLaXMis/ZdmU2aphOBd3i+2P5Ee6av7Y7bBruaPpGz8Qhhu6G5iBhoQ3Yjh5i/d+/cSSw37DjGsgGx3rIJJvq7Wy0b31pbRgSWAjreB7G/A5+loNMYcsbZwNOw6YqpIO/rr89uMDT5XU8JHDatqqnsOPf6np7mMWOQ25dWCsFt+DgSZywGNvy+JfHFSGfTcTmaj222XAyYiIit9IuaWPjwSVLdK6x3z9mT+MorLBuPbYNN703sf17KBH52Pmz+PXDnJCivE6pB/Bg2LpzsL64cCX1bgHsdsAli1EQcyGaahMW1Jv8rdy+olt2tNZGagR+B8JU00hIEtivkcLpdKcQvD+5eMNvPxQd2LpolhLQlhxYxEEOmw+Mak1AXvXGh9c4nvzY5gfkgfgSbfwdbWkuUwJsvhvhzwFnTI1oI65P5bf1dzedJxJWeSjliggnaAQeplLw7osV2RaSxGzwLJlJUMEngnG57mabFfumnaiqkj3zALv61XGgTMWhP4Mmpi57cd+3uAZrPwaaLSojAUsCmm0DeDcwmgIj0NbYIuMMX0YYtQ7dzoVMwN5e+FMMmImoprzBzPvLnzEjF8AOyu7XG6YKBPS2NUohrHY1qwJnAJmJhwMxhDohfQse3EzuyTmcCv1gHm+8HcSMBhexurTGj2q8BX9u5ihHL0MUBo3gvdcBIc9HzwFsi0niyv6s1a/tfuXtBtTTMHwGNjs8UMdAcFVguDKhpfAyW/MY6Vrd4KOI88JZGGP4jcFxQyXtg56JZETnyKyGE702+fSpwThCpbRl5H7p3rMB4bqC75QeY/FIS7xKadkxExq4XiDZP990pfSMJKoEB8VYIPQodb4H2fdOIwFubIPYnILClcgd2NR2m66MPgjgyp1eaILAYMRGjJrKycKdoLIEFCEMW0lQFUn4YwYcFuq8DOEVUWu77kKP0B5jAAKwAHoeNZ8LqgreIKoIL/VQzxB4JMnn7u5pO1nXxJHBkrp9NEriYKiwGzEJd6AK+2xh/Lvvvnic7CAecxEeC9kdL+KaUwE9UQ+gBXBZzlz95mz8gEI+4xYTuBE75d5Hi4LSBwJhkAkeMpKvsUI2FNtI6rxWFoyH2UKFFHwUQWGpQcRfYF+gHAZHO5psF/IACilNS50u1IhE4LQaeZAXWUtRfc3CjY8QXKv4C0AaxuwvJThdA4M3fBM4PMnml4PqsX+RImGQWumgutAlaShWUiOcRA8fzj5tTK7AcqrHQEEsUd8dwLhz6lUkmcMe7gY8FtccHulpusiUvia1c84yBi+FCi8GMjexyHVCiEr0nVoACG7beRbrzJo5SvE3DJ2HTukkicMdhwPcDG/N2N18P0nGeWwzkT+BiKHBqBtoicG5qqr0RR9sfL44COxVzSHmc4mxWz30Xnl4ywQR+sQK4G5gRSOXtbPqQkNzsV4H8uLupq5CSU0nFJLDIcUzQXo+jHcj/HlIHMMdySiFOnKgN5ksYM0H/BXSEJ5DAQzfgsZC8bMm7p+U0NHGrpwH3+2dMsg467YUUqMKi3yxQgY38k2mStAosp2osYGZ/Z0ub4mwWVgPXThCBNx0B4tog9upw97xDMOU9SO/5S9HvnzCp7nOx4uAsFzrHQg5tXxyRpwsthsy07xODzs/iYyvaoOI/YfORRSaw1ED8D1OwcfVUQ3a31sSlvB+ftc25uNCpGeixzx8oVIEzCZzjAPBG3ErE5VHBJTISeGLIxRUXvLe/c/4cxdcsVIJ5u9+1xD4J3HElsDaQrrNp/F+QK/JWwBwVuFAXOisGzsGFFoPmWAVVPveROgc89nzOHJ6NZnxDSoTibNabOBU2v7dIBH6iGsRNgSRvZ8u7heDynLp+2PQ9j1p0F9qQ2aqXQ3PaG/GCPIEsl9m5Gsu6Xsr3Rrqbf3Jwd+MysPa6jnQ3Xd7f3XRnf1fLtQN7WpYHmMVfhI6aIhC48t8IYAF6pK+xBeG9HU6mwWJIxwqkiVZgrd/IXnCQgyucRuCD8Ty+3+Z5vPviMk3Ttg10NRvVMW1ASvETIcX7BPIWTPnCQGfzo4ldOIOG+fiotfAg8NNzQH4qkONfTLsDayG9fwWKS4tAw34JbB8X5zuVZJcBFzk0pe1LmQLKYyrJrvLKqRorKyJ2skXBaZrGkwNdTf9dOucrFQ3XWhzMm8D6xwngnG9/V8v7pY+dH7OQcJ3tklO2tumgTvmqsG38nYsCv16gC22TwBNDRSnGFiA+EqkY+mukt6k5QKY4E7Rr8iTw1lrgI0Ej74Gdi2YJZF61qSJmkUXzq8AORM83DrZzYX3HwJK0CiztQB4utE0ZqRgs5moKsVLGeWyoqzVAIZ24xtrpJmcCx/4FCFyaXw+NfCHLdfZrg0kFLpDA+U4l2ZZx+sxCa/3G2ACUJF5yXy1fMB2ScoPFXg4ljohj/OXg7salATHJ2TD8gRwJvD4EfCJo5LUO3xIfzCaUTzVKEmDIpykW24U+aEMgny50qvs89tkcElnagGG7Y4c2WPz1jAIOEZr2p0hfY0tATPOTTksOHQhcdw4BzDxLnVvJ2GZIjJrpO1y4GVYuCpxRB10MF9q2jNMnf1Iz0Pl4AsJhFZZbNZYfb8aNxDKm/SZ14/syxiGw5OxcXOirgkbe/u6mC5Ccnm2Ypn+XOO4/Brargy5EgUVU2g8IvhXYKIzADoNcvkms0Gujfi5rqzX4qZRBOGVTXOWTwBtbQLwtSOSVEk0gPuekLH6zykkX2s/1boNCPlNJwoH0flcjFarATuugPaqxnAn8atRv/H7+YHfzzQEw03dAxzwfBNaupCyOHc0h9u1ufjfSflM+LWIihn1WViXdPr8K7BrP5qbCjiWcfkhgSrT9Nhnk/bm40E6L992rsZw+o3dFESPS7+WfGuhsubjMzTQE4nI/LvQlQSKvlGgIPu1omIOmfzcwOY00VJgC5xMHO24kIL3jYG2/YUv0XKaSNJc8gZajG629Ebf6fcT35wRC/mCgp/noMjfXd3sQ+OklwPFBIvDgnqZ1Tuo7RuAcY2Di0jsJ49FmrlNJdhlovypsl4Eei6v9loW6bCXksxprDPruqPW50ZxWRNVhcN/+HTNnlrHctMOWQ1wIHLooSOSVEiGluN7LNfRLYFLmUb1Ux5PAxXKh8S6n1N4wCh5I3LYSyjWRpXfGEgTOOXheFqqo/NGMGZFyTWoJkBe4ENi8IEgEHupseRsee1prg7kksVJWxnm5yMMU14V2W8bo4Q1o++IuBPZ2o8dOY3DxYnzDBL076itP4IB33veTz360fK3WdCJwxwwQq4NEYFOTn/Q0znxcaB/G56VKOSmw9NhIwMuFfsOZpOKgj3jeYxODXAis98bGB4OR/La3bWl+/ePla7XipNQD0lIILE+H4Gw0ljiN/s3uDJfWlE5U+ptPTS1F9FLgEe/f+3UhvdYgu00liah0Jb8vBfaIcXOpxtI7oyl9kOf+1OU9LxwCfa0NgcWZwVJfzVN9tYg5Vh7oR4VTFVgbLiwGzkWFPXcBcRl8tDfiroeW+YmBNU8FNnIgcMz3IJdPrqBMVPjNdjHwGUF5/P7u1rlCSs/pslTXzxeBUxTYqx7aV3t+E0heRuzyVU4Z6DQCy8IU2HcSK56+qbxnFtoEbW88gAQmk8AdM4CjA/P40nw/UOlN4NRTBqQvA/RFUNNfhtVvBthLgd32xXLLQCfVW3icNuGpwD6rsfSuWPqull7FLv3xfBNdpY5jknFwUoFXQjA2F5MSIZBX+1K2XBXYpwvtVgedj3so+j0acxEptwy034HEc57XZzVWKCX+9RMDa28YiGggCaxBxfEpBBbt5f7Et3/naycADHY1nwks89VLA2ZO8VhaEsvlet9Z7SIpMKZHDOxJYPdr/Bwn46caS88gMKOm931FCSjkShireTbbyl2A16564af9XS2LpTDbfW65m6HA3i50WgzspcAAg0Bt4QrsncRyfj5fyTS3/bGkvyyziJiuO2uLETPLG/DM1O83IRTUXWnNtlQFLvvDpgQyJJC3IIXvarP0GNiHasb9VWKJYRNGgIc9vt/PVJLpneVNG1hyVF8vFzrzNAbX67zUN6MZEZXu3sOBeFBdaEAkXeh7dOBQFAqPgVOJ4lIPLYZN2ADsLDwO1iKG92KF52MFEdjtqBXh8zhVr2KO1Okjv3Gwtt+AURlU81wKUtPgkEUUcMJ8WWcKciFwYk9oP3Gf9lIctmDFbwcLi4M9p5B6QHQ7KPA+ny56xACHUknN724lXgTeFXUPN+y8kxHT0bsIAKpg03wNtKWKqg6Gk0tpZHJP6FQ4kF5/OEU19+XvvvqKf3fgWKesverzIO9tEHrOnmDay/7acIuTxYDh+BxOc8HJ9cuFHsda4hKzVANxmKKrt2J4KrCNu+yoHq+n/NyLwB4K67lf16vYq6cB+h98VjE9Adrf7Ika+mPUs9AjM5+Q1cZu51SyE0HHtsCNyiBb6VIN5EJFV7vYzsxOqLgka+xcOUfSpx5B+nphLrQrwUeBLmzjRP2lKDzvw/i3A3tA/7tDjPqyCXt99KdLEssp/gXAce9s01WhgwG5UAPRqOjqEPf5JSSkzQGPteFwfdoZwoUqsJsLvQvLVbfhh74lChGLnF7qCyB22hAlCmK7CZ0+CLzZtJ+zTWyf4xzKSFcFFjHTlwdQpmjU8HnubdBdaPaBvjWWkwvtWA8d8UHgOPCS91SSaxnjzhTvIZPAL8bGFdZDfQFEZ/Y9hP8ybJGyy6MzDeAx0HZl919y+5zcCZx4bpMAJ7JkU7AVWOZA4JckWqfLfGjcpwsdyyC2Uya6G3gc17N6RUy6ewU7XLyD7aY3gZ9I+a6e7O8J/WnE+oeXAm8CDoC+K3s6St/tXkplm0cwrTro8T4M7FxwowZyblD5q/fGHMsEs+p7twlEn5kTge1caK3XZvmenQrvkrAfeNE5Dhb9LiuF+lPi63j28lixK3Fvey1yuakvAAOg7U9/Hm1L4r4OWr+3xTDwVOL63dnPoe9wz2Lbxbhafzxt7jvAcXCjhmsxX5nDkFQ+HrF30VKL7/dZf4TbvGnMXxZa22PThl0SaFeiRPBJ+03XAUIbRp0XKryWch+ZLvSoCX0ynayZ+KtNnzw/mh3/JtHlouIJoRaZzx4F/V73Ddztkl+h9aPQm+6JBBS1Gj6W1ZW1Cu+KEnpl1F2BX0ps2P4GOSmw3TywsCPwGzYxY/f47/SHHeZgt8bgZW8CZyaxQlti6dVb223Ut8emr14aHy3Cjw+nJ6XsCHwAq2Al+ey96X0UfmQY8YzH+9kTzZoL1zui8PMUDyG4c8GVgScwQOWGSHoSKrGVTqr7DBnzt34UeLeNAvfZEDjThe4iTVm1R+xlVuuU8JwfAqffm745Y0DoTLi6Luprxc3j9xF6ZCS7jUysJ20hRWYcHfrziOV+u2XC90DVf/Sn9+sOaan6PUAvuZ2iqAhconApihcDBhUd45ml1K10ku4zuJ9ab5vEelBCRqGF2Gt6E3hXeluZyjX2827Dmiran/GLXtITZZkK/OdoVlKIV9zVF0DbOX7v2mYj+ztjGYTelvH5bemf0TYl/r/NoVN7gV+A9vsY+vMpe2Ulk4nDid9vM4JK4CqNgByj4rX1SsUzQ2PZ3rQM9Msp5Ol3GQQyd+x43jLi0Ivp7BH7bAicmYnelbFEbgi0Xpt56SSxt2b8YkfGdakKPGAinrUx+H+4qy+A6DLt49/kINCd8v9HbBrok2ivJeZvD5qIHYk2XnYmL8NW25VfiqQouUxLkulPBnZRcFgjIEui9T0x74TWowMJAqcY+MsiRakdPjsqCT2V4lKOAI8mBoZbB9NJ4BRHJ1U4nkGE5P2/aPOaXk8hcOr4tDvTvU/xue4etC3s4FXgJWf1TRIQUuZ/M5F0o1+yfwaA8O+Hx/82UmLlPQ7kTQ7AG+Loz0fReuLZ8+sR4RnOlClGtYzop3wVeKd30b2+20pojSnwvgz3dsDeMCp/EEH82BzLtrIBa7F+iuGNEXi/gxuezER3Y5tZ1l5O/6HWnbIbxXCCNEkl3O0cn4d+6zBeR/Fcn8wIaLvjVuxqhy7GijYc+/gJ6z2E1mfcxzZn8iafq/JLEfRnYzYhUPp7Ce0YDQqBhzXGza68Ffi/476Wz1X+JTJe5fOyzDZym6qh0F0j1pzrAwkF25JteGM46KAOb9jHv2OEfSWDwJmrgJLf2WPjU8U93Oex8dxHPz4fy45/UwmcKNpwHEiftz6rbckYpV52IW+KCoce8pgxAPSOkUAROBAKzACEf+v9qCJiEP7bSJb7PK586cYbfmQY8Zocjz3vImuBvbYhjv5C1FYtslzoXfZbxGi7Mow0g9DsSai3XTY4cWnlPQ7ucy4D4QvR7Pg3dQD4i0cDfZLQ06OQuUb5APBTD2s0QX/AxoNIKU0NPTOK/v3AJLWGgkNgQH/cp/Wa0lJUmwopbU86cSq+N5St0jaGV3lzxD0Rts85/rVc64wqqFdt/OwngT77+B4g9GDh6Q79dzH3rIkP7lTeHLGvIPPzeuzaT3kF4R8OB8SntBQ4NB6tBSAOznDbRKdpGbzdco6XJHYb/Wl7UqZSXosjNvrc1WJDHP3ZqPNwGU3EsQ7JcrE3Y2qpy4YB27HdW0XEEu7z1sKVyVF9c2ljc3EVcmwGIAb6nwOVkR7SQPQE5nH3SrTtKTv/95pwJ1bGOHP0f9nelU2th678zoAvxUmqcNUN/e5L39yqkjKmksQe03kgsHGhi+E+T18dsjq14leDVg14cLBHA9kVpCeu+M1wFrF4CriD8Uyog/sMKfXQ0YQ7mYtSPOehXt0e7mvKVJLoy2GqJF4c93naIuEyh38xQrAgugJHYP2vDqQbAO7HyiRvdumyRLa48gcDkz7aa8la5BhwIAcCD8uiuM/TmcBan1F013z6Q3aFQHQG6ZHF84kN5ZwOoHzJ4/OJeujQTyd/tE8mrrQdMf+ue3JwKms7hspb+12PkClTa+4MnAIziDWNkW+XHTCtqaOdRaz28Xm4QHIqyWl/qiBDfyCIfSK7NLLrdsoeoYcLmDnrl9lTR4W+huU+z6NOTCVlzQErZC/oCMaw1anBjn8QoLlgAP3p/Akg+qTvqSO/iL+r0pcKJ6eSxE5FYAWGYfurGlxseEd+ZRY5bDNdDx9zxRC5xZ9+CLymEuYLX9+t9RpoXVKZr8LzcLGR8N3k1kA9egzCf5qkJFS9d/xrHB7CXOFvVaf+YhR6TGW+Cs/BeC72+cDFwY9MwrxoNXA+7u7xDKBSI35a2FeT2rZ4VlWWQhBhiW6CwPpzQXt8bdMkZC1bgPnAapfX0Gi9gvjZNc5TW6n3/TdjekwLFWMrxHpFw/yhpyrwyDN4HlJZZnHwTon2+gQ/8rzE36cCDpv3ynnWKzBnachF3nGw3hGbFicRGOcUeKDlfIG5Jqx4mGf3g5mqwCe9QfbGLGXugYwvLvfEDB/NLdNAz/hhc5J1wNvsXWmZkrwyV/ow6E6Z9z06oi7j/16nZWkw+rE673adjgw4EqLX1iBrhf97nCsUbcflZwu0H0yNgcF+F6PydqOf8TcdY5ztnWAyV2hEv1KbTuKWVMWxd6XNQ8bbjp8e9jXwZKEKzFPyVzNzTcrzzQbeabXpeAsLBOaSkDep1toPLPJYjegFtZin6N6DRbJvrqwMyO5tvtTnkZSxNPuHgUGPP180tq7W1aCTiF5SS/TLNRaJq22M9xRgTgZ5lo1bZeys6mwVB2u549tdXmd7CLM5T4VqFphv0tMHmnrgTJfvWx4a9zqcMBM4PGMQSz7nydUgwDxCh8uAdd6qHz23GnmU8/fJQ4Ok0GK9DYFrHqd8F5wVNt7VCcxT/Slc9NI6ol+rhYU2BhUCzkl3pY03pbRbryEXi3QX9Fzg/cDRCXW0G2DOr0DO1fNT3+U6sjmDwADHAg4nRxsnWAQ2jnH5zvbEczZnx77R8xMZsFDiWQ/BIvLlwGL7wcBcFsZwytSHYPQLdd6ue3kgCqENNgReHgE2Kro69NrVNf6vfXctxqUOxpbqSofAXJjuF5ptIUtxLwT+GTgmhfAt9u5z9IIaZGN+CmScEMZcmELE1pRfvtXelY6dXpX4rMOW4lWJAcDmnmMfqh6zOhnOuOcFwKWJ51477q3IZfpYv9rH/4L4qdXI4zVr4LigrE3xaThu0IbAAOIBRVWHGOzESksdffLEcEtIJV3p2SLrDUQ/VAMfSLifWe6ujYK2h6BSw2xxUUOXe46dVYU5P/HZigz1snOlZ4K51Hq22NpK+6mv4xjfGWReuvqOvi9FKUMON9aYIPDVFplj77EaMw8NwYLsz8jZ1s+Gb58BZ2EfhpQPfpWWx8kwu18Q5OOSvUh5UaWVTT7Gh2s62yXjknClZUu2MRqHVTgb9jybgeU8y7jT3OBMLHdwh2eCeXgYI5lIa7Uhe4YrLY9I+Z5aDeZlfEAD2lL+n5ILSFVfWwV2IHP8tHE3IH5pOCuPIBckpuIWhIkvKeuDRiTw/1wIvHq3JdEBhYc9jXy4Htku4Gx7MqUReI5HynQ+GJfZzKXqAqPFQb2bbdznCy3XXs5z+b5j7N1huTxBxhrN+t18h8+nfNZYkT5QmEdkDBxvAhoyPt9io74AFT4IHBKYc8f7I/qe2jFlZi2wBuJXj5M2uqrGt5dUgtgA7btcCAwg7g5ssmqhx5uvFMSPqLYU9ALAJSw2G3Skh4Eay+1JZyxwIHBleiLLXBVKHG8F5kzNfpplZiJJZOMOG+0pH2gQ6fEv9q50/NR0hTOPDWUnr2wGnkz1BZAhb6YZzeG0z5mNYWStNu5mnw5ylkj7fXxhRZlaaDY3bQgs76bo622mARpsfqZjJYwSUxh+KoNiR1WNt3c+zuWPAsxZ7ios63UHArsYYEpSKP7OjOvscjzHOrvD8TePS7Kc6ULg5GePEsTXVGfkBirSk1A2bZhr9Gz1BfDhQhvzwln9Gl+cPojIuvR+jB1bXY7sNUHc74PA7XtA/rHcnn74vxuQK4WVQLogkSD5P1gJo/dYhmecGM4+qzEEVKeM8HNDyITqsQjX+VJzrjuBzRkOBG4KO6t3c7b7PK6UIjskOMbBHa6F+PHjDyuP1Kx41Y1MV4eztq2Nr6qCJMdWOTznoSF7qfBBYNMmNDCWpN+EmUFgObssKz4egpXdPggMwHfKzj1eGmb4p7PhNAFHYCVCtBRDP9eqipKLMrrkLSBna+nK2hxKdxmPcYqD3dOhssHh9xqY88KuiSx5tD7mPo8regYhDiV7wUDCHZZH6Omu6cneRm8stLmnikToMRP7zLlbrOvlQouEC52ZuFuQnuiTdRrlD3mrg6nYof13OJ/9Xro+SINuvXw7zAFjeTg9y9qW4YKmxmWpOBvkYXpOiSxZpbnGyMZ890SWbLD57AyRnbxycIdj78tQsSO9514Mh0SZfFPI6iuHx3F6Tq8Y2JwVQlZptsQfe4+6sL+mvPAStP8pBwILCXy3HHvCWFzhONrLaoFxXMJIFwJvdjCs5lCWm22uypHADe6EcRxokoksG/dTzkp5ndXAMpf2T01PSZvVuqcamg7Z8fgpYWvu1+lZKzVHTwNduCewPN6jWauVc9Y5xSMWMgcCA4zcSfqx02WB+BL7/adkWIAmiJ9RBbPcE1RuhpWlsrWaozfgqj5zXeLgFsbjzjQCp/znaBwLGmSFwJyT3oDTfY7dz+yQIxHj76y2PdJlPFnl0kcuKmy6TI0l36NTIrCMcACqf+L0S5e3tnYAxG1lF0nUamnzimM/r7G6wjgijPwX4bpgXVZrngT0UmGnBFbqmzFaKxzdaLsEkJyjpbnJzsSoyJ7SqXEnsOPcdGIwcnNjXafT3MKIeWHP9yjry959vjVR5pwrgQHkV7EOGikzFQ7bknLMVZzvrbCmTxV2IrAfw7NNGiUTWeHszQjGFjS04lrQbxfLehHYbAm5u9dNodxdaJwz0bJKw5wZ8nyPmRnoMsM+iH/dY5x3Q/tB4JayI/DiSmcCA2ajj4xss7+pCmNungoMGPOdFZjKbMM3mxLP4FHqaafsskoDLT81BGvqy9mFdlFgBxfaaAl7xrbxxZW5bQpQchBfhDX9BRAYYOA2ymzz97FqHgcCG00+FvC3+FRghzlJ6cMFN+eE0u5rDJVgHpL9edmiW/PWR7o0qgv7wUc4q7Cs0jBneMxpuymwi5vspMCuip/yHv3mI0oQO6Hhe14X+SDwGSMgbyqvgc2mmidVgZu8jcJoDLkq1jiB9exe1sD0E7sJ5+kkaTPtY7boVi1ylUcs65D5dUpkGfO81dCNSK4xsJMCzwv76h8/76pEcSMsGy0CgQHa/xfkn8updzKreWRqtdUM7zpmdOFZaTV2XUYsJ2t1X+S33GgHAs/R7FXrOI/2XIhhVmt5q6Gsdc64k2sMrFHOyupHYR6Dth/7udIngYWE0IcpoyNYsqp5qjOqrRp9qHBzfm603wy2axxs9+bCHtvcAEari1I6VDQZPsMFp+vcSibtppHMxrB3lVb5Yhi4ymneN08CA6zYDnyubLoptZonk8D4TGS1+EtkmRnb3eRCYHNWyFbZpO6cvXV7226xu228nYMaOvWZrMxtGsnvgFGm6nsjtP3D79U5TqINfB3YUjZu9GJnAvtKZPnMRGcqsGzIoduFw3ywU5FGjUthhFtxiEMMbMz1r4a2RNeEa7WVnTr7HRjLEJuh/5u5fCBHAp8RB/1SyqRCK7UqK0uBfSRHzBkh1znOsevm5O9CO8bBWu4K7OY+Oymw2epfDc3m7GSXq/qC7RpmXwms8sMAiCssjk0YgZOutLiCMth6Z6wqS6QnsSxy+khkCX8qnLm4X87IkcA2C9SlnoMb7JfANjFwLmooK0TW/LZXH2YqsKzXs9b3BgASxJXQlvMpoXnWobU9CPJL5aHC4bE66CxyFiuRlbG4P1cFNmfo2TW/TjGwE4GFd2xp99lc49GsCjWvNb8Z7nkx4t9oLLytxMzwC9B2Xz4fLKCQdMdngd+XPIEXVzoWMPhJZJm+E1mhMYN1U0nfbrRDE7LKoTBiVsi7XDJjZU8+apiZO/AKMTIVuMD4Ny7gy+9a96V3lI4Fit9B2035froAAl9sQPhdwF9KmcBmY9h2cYOdMdpf47cmWh9X3zxmSLIInGMW2ldcqYs0QuUTi2YqsMxVgfOOf+U2TWgn1s3vve7VzsZSOaDgKRi+BIQ5BQSGxAbT7wA2lyyDBcSOtN+K1E8iy+/KpGQiy8xz+Vvm+mDplMSqFnnFv+NxsF6QGloVaik/qMwhBs7YgTKHV/iDQV201bbu6Sghy9sKFedYq/7yRxHWYrUfxNpp6cVS5bCxsNI59vSx9amflUlJAueawEp1Z9MSRJr/ODYnAqfWhOcTj+oiLevuqcAp/Zu5A6WfcQ3Bx+vm917V0tI7WEImtw3iZ8Ox+wttqEiLKdv3gflPIKftCGiaYn/OveA7keWj1DCxuN9syL/L06qynOZmbVxos0H3vfA9ORcsw/mp4RgR/cbAobxd9mEh5Ln1rb23lpjLtwnip8Ga3mK0VsTV0Kt7IHIK8PPp2G2P/qXtSqA/9xi5iCuT5oR8rULyEwfLHBQ4l7ncZKLLzF0N7fvM66tTFNptB44MjCJ5e11r3x9KjLz3gjy9WOQtMoHBWrnUdhnIaVdyec211zyHKc4jx3puX4ksvyuT5oRynkJKd/VTFNgpBg6LghJDyfW1hUznpCmw33lgkcN3Cj5Wv6C31I7DvRVWXgztQ8VsdAL2IxESVt0E4hKm2W4e9Qt7HpVwCcL/Maq+lqvpwl/t9NzCFFjWpOxSEXJ3152U2/N5E5vbGfPyn84xZ4fGiOlZqZYYbMxZ/qrakOLe+tbeO0qIuPuAi6H944VkmyeRwEm03QPm0WScpjZ1kBKgYX7vgwL5fsBXZ5ozdO9yQPxNJxmtYV9JMdc2kseuuCh+qhsta7wX42fFwMJ/WOBkVWPz3h5JrGQM7LMgJmZK4zq/73oa4H6IHw3tv5yoL5jgHcFW90D7BSAuB/ZOYezxGKwYOxSqrrXvZyA+7tNd86UMfoozirGDYpLA0m2BQMpUktEazmneWdZorjtQ5uq5eA5+ia1lfcW/kntnLNzrY6XOil3WO58y7AUug/YLixnvTgGBx9T4Z1B9KHDDFLjVByD+wcz1lfXze26Tgk+XWBxlZaKF+5tLdaFzLYyQNVpRyhmTmXk/x6fIkPB7nz7PrxbSeuccmOTX8zpwvWXr7XdNxhdO4p6cyyPQ/iUYWQJ8ZpIUeQDkBXDC3+1+2dDae7MUXF9KBJbVmufUVtpcbmuOBK7ScoqZHRU46RL78V4avHegBDDNcA5Z5xP+DlwIRCbhtfSB+LRl2+23uG0DW8IETmLtALR/AZgP8lzgZ8BETMK/CNopsOpRt4saWntvEVL+eymROL6owoPAiQSSzQbufkIGY3Hhh2SbDTqyUvOlwMaCCj9u/u4ZCzvfyO0u2teDeQoTU2Q0aNmuPAcG5kPbzYVWVeWDKVw53R4DHrL+bK21KlM4AeRqrJN26vNs+G/AbTDjh342BQOoW9D39UhnsykFX6cEDuowFoU9VRTsN3D3pcIVReiCxFJLPwlArwEJQEr5Qp55mGdhexsc/ABwDe57dnp4c3RYhRg8BaE/JEqJpxTTZOuD4waB+xJ/sMoUOpYBh4HWDGYjCB10m40EQq9B/FpgF5hbnNxlbxL3fnOgs2kYIW7Dcb+LaULglgpfBC5kKqg49xl23Y0jlzhdCJ7K/06WjQLfs/48fThoK4FFlu1kQj8Ixg0gDdD2gtkLvALt2ydiGqgI46RCKiLdTW+RUvwS+yPBSwJ6V5Tq+w8wfOGsnGPgot7HnljRdtcwTXHCjIU9G5WFTnkMPL1R19r3ByHlqcA/SvUZZLXmvIF7kb4CuB/EfwHPOSpr8baG3d2woKdDWacisE93um9rbCTajhT3liSBqzTf7mseGBJCvq1+fu+F9fN7bqwbql/t2E9Fsi4p+J4QmMoyFYF9Y/Zh+w/WL+i5SMB7sMrhJhp/RMh3Cck/CetQuUhBBJ4Y19mUcGlda9/YTixi2T9G63p61oF4ZoL6Za8Zq7xdWaSKgfPGwJ6WRkzzRoT4IJJiM8MQgn+va+39VuoP+zvnHi6Efj9wVF4jc1+s6MeOSME3G1p7P2mbO9jddKzUxCbcTwrO3UCFvKKute+nygoVgQvGwd2NS3VNu17COqC6CE0OSyEva2jtu9/++xbM1kTsMQRH5xWlFvftvlgXrW4XS14bcbrgQG/zoXpMXobQLgd5eOHGKb9aN7/vU8ryFIGLTOQFs3U99l5pcj6Ck8lvOq7blLxrxoJe1+mRwdfmzpNh/QkJi6fwkUeFNNfULdj7rP8+aj5BE6xDcA6wLEerjAlTXl87v+8bQpT+9sWKwNMY+3fMnKmHK9eicTSmOEoI2QrMBGqBQ2yUegTJj0wZvsFvZdFg97w2U5obcD13MP+41isXIgSfqGvt/Xa+X3BgV9Nhuq69FeRbgHasI8jt0IfkflOaX/O3aEFBEXgCIbcvrYzUDp4gpblMICo1k9diZsWTMw/ZlfNeSP3dzVcJyfeLe4P8pxQiLpC3uJD3t7Xzet9RTCXs726dqyMPkdKYLaU2Uwi535TGrvr5+7YrxVUELlsMdDV/H7iqSOS9uX5B76elRES6m+8Dzre5ajuaOLl+Xs9e1fvTE2oaqYRQN1T/USnZVPioLb9av6D30wmFlXXR6nUCeWfGZZt1GTpTkVcpsEIRMfja3HlmWH8cWJrnG/9ifWvvf9r9KtLVdJZEO1kIc3vtvL67hSCuelwRWKHI2L+nZbFuykeFlSTzC1MibmiY3/Nl1YOKwApTjP7u1rlCxu8DcYqPy98QwrysrnXvw6rnVAysMA3Q0Nq9r26o4SwQnwNGXUboB+OaaFPkVQqsMI3jYqNCvxIpThXIRhDDSNmhafpPalu7t6geUlBQUFBQUFBQUFBQUFBQUFBQUFBQUFBQUFBQUFBQUFBQUFBQUFBQUFBQUFBQUFBQUCgK/j+X/IU8u0b+pAAAACV0RVh0ZGF0ZTpjcmVhdGUAMjAyNC0wNy0xNVQyMToyODoyNCswMDowMCbVr58AAAAldEVYdGRhdGU6bW9kaWZ5ADIwMjQtMDctMTVUMjE6Mjg6MjQrMDA6MDBXiBcjAAAAAElFTkSuQmCC;" vertex="1" parent="1">
          <mxGeometry x="180" y="460" width="70" height="70" as="geometry" />
        </mxCell>
        <mxCell id="D-ZUbSENo2Ke0Ngr0vWy-24" value="&lt;font style=&quot;font-size: 18px;&quot;&gt;&lt;b&gt;Krita&lt;/b&gt;&lt;/font&gt;" style="text;html=1;align=center;verticalAlign=middle;resizable=0;points=[];autosize=1;strokeColor=none;fillColor=none;" vertex="1" parent="1">
          <mxGeometry x="340" y="530" width="60" height="40" as="geometry" />
        </mxCell>
        <mxCell id="D-ZUbSENo2Ke0Ngr0vWy-25" value="&lt;font style=&quot;font-size: 18px;&quot;&gt;&lt;b&gt;Audacity&lt;/b&gt;&lt;/font&gt;" style="text;html=1;align=center;verticalAlign=middle;resizable=0;points=[];autosize=1;strokeColor=none;fillColor=none;" vertex="1" parent="1">
          <mxGeometry x="165" y="530" width="100" height="40" as="geometry" />
        </mxCell>
      </root>
    </mxGraphModel>
  </diagram>
</mxfile>
